<svg xmlns="http://www.w3.org/2000/svg" xmlns:xlink="http://www.w3.org/1999/xlink" width="288.449" height="70.805" viewBox="0 0 288.449 70.805">
  <defs>
    <linearGradient id="linear-gradient" x1="0.5" x2="0.5" y2="1" gradientUnits="objectBoundingBox">
      <stop offset="0" stop-color="#094c58"/>
      <stop offset="1" stop-color="#2d8c9e"/>
    </linearGradient>
    <linearGradient id="linear-gradient-3" x1="0.5" x2="0.5" y2="1" gradientUnits="objectBoundingBox">
      <stop offset="0" stop-color="#2d8c9e"/>
      <stop offset="1" stop-color="#60e6ff"/>
    </linearGradient>
  </defs>
  <g id="aljalbootlogo_horizontal" transform="translate(12320.714 -1464.885)">
    <g id="Group_370" data-name="Group 370" transform="translate(-12320.714 1465.31)">
      <g id="Group_5" data-name="Group 5" transform="translate(0 43.298)">
        <path id="Path_8" data-name="Path 8" d="M2175.066,1103.75a40.982,40.982,0,0,1-12.254,1.33c-17.809-.585-27.359-8.8-46.888-11.431a37.2,37.2,0,0,0-15.528,1.654s9.349-.288,16.488,3.048,18.842,10.357,38.5,9.889c0,0-7.529,5.857-28.361.022s-27.073-14.1-43.145-3.806c0,0,13.517-1.833,24.811,4.135s21.182,8.894,32.184,7.958S2163.346,1111.458,2175.066,1103.75Z" transform="translate(-2083.882 -1093.401)" fill="url(#linear-gradient)"/>
        <path id="Path_9" data-name="Path 9" d="M2488.519,1110.774a38.932,38.932,0,0,0-13.356-1.846,39.675,39.675,0,0,0-14.99,4.263c-11.083,5.248-22.5,16.48-45.693,17.83,0,0,20.439,7.256,48.176-3.394s35.5-7.334,42.677-6.007c0,0-5.618-7.568-18.413-6.32s-33,12.327-45.642,11.7c0,0,4.447-.156,17.32-7.8S2488.519,1110.774,2488.519,1110.774Z" transform="translate(-2359.668 -1106.351)" fill="url(#linear-gradient)"/>
      </g>
      <g id="Group_6" data-name="Group 6" transform="translate(32.043 0.84)">
        <path id="Path_10" data-name="Path 10" d="M2359.545,869.5l-18.413-1.935,17.9-.025a41.606,41.606,0,0,0-6.4-13.063l-20.52-2.07h18.911a41.75,41.75,0,0,0-65.957,2.175h19.31l-20.771,2.152a41.531,41.531,0,0,0-5.015,11.383l19.935.157-20.43,1.873a41.871,41.871,0,0,0-.951,8.464c19.513,2.559,29.079,10.846,46.888,11.43,17.664.58,22.877-8.351,36.563-9.1.027-.623.044-1.249.044-1.879A41.854,41.854,0,0,0,2359.545,869.5Z" transform="translate(-2277.151 -837.311)" fill="url(#linear-gradient-3)"/>
      </g>
      <g id="Group_413" data-name="Group 413" transform="translate(48.456 0)">
        <path id="Path_342" data-name="Path 342" d="M.489.44A38.47,38.47,0,0,1,2.7,4.556h.892L1.112,0,0,.208Z" transform="translate(8.448 38.35) rotate(-3)" fill="#fff"/>
        <g id="Group_415" data-name="Group 415" transform="translate(6.733)">
          <path id="Path_333" data-name="Path 333" d="M7220.735,76.555l35.76,35.55" transform="translate(-7211.945 -76.555)" fill="none" stroke="#fff" stroke-linecap="round" stroke-width="0.6"/>
          <path id="Path_340" data-name="Path 340" d="M7396.2,214.2l-2.683,31.961" transform="translate(-7367.316 -201.312)" fill="none" stroke="#fff" stroke-linecap="round" stroke-width="1"/>
          <path id="Path_341" data-name="Path 341" d="M7301.483,254.439l-1.457,27.286" transform="translate(-7285.935 -236.337)" fill="none" stroke="#fff" stroke-linecap="round" stroke-width="1"/>
          <path id="Path_334" data-name="Path 334" d="M7275.5,153.989c.527-26.065-13.8-37.058-13.8-37.058s4.315,4.8,22.394,17.915,21.742,23.778,21.742,23.778S7296.57,146.572,7275.5,153.989Z" transform="translate(-7252.571 -116.512)" fill="#fff"/>
          <path id="Path_335" data-name="Path 335" d="M7166.179,198.764c2.975,1.805,8.547,5.419,21.386,15.033" transform="translate(-7166.179 -185.91)" fill="none" stroke="#fff" stroke-linecap="round" stroke-width="0.6"/>
          <path id="Path_336" data-name="Path 336" d="M7217.462,248.718c-3.259-7.747-4.336-20.985-7.623-23.135s7.252,4.009,18.808,11.733,15.27,13.383,15.27,13.383A43.63,43.63,0,0,0,7217.462,248.718Z" transform="translate(-7206.898 -210.843)" fill="#fff"/>
          <path id="Path_337" data-name="Path 337" d="M7191.983,403.538c7.119-3.9,11.815-5.348,19-5.627s15.908,1.988,18.663,3.628a20.324,20.324,0,0,1,4.536,3.7" transform="translate(-7191.886 -361.205)" fill="none" stroke="#fff" stroke-linecap="round" stroke-width="0.6"/>
        </g>
        <path id="Subtraction_2" data-name="Subtraction 2" d="M32.1,18.014c-.524,0-1.073-.009-1.629-.027A59.113,59.113,0,0,1,18.1,16.245c-3.757-.928-7.33-2.147-10.963-3.42,0-.044.006-.085.01-.122.157-1.434-1-3.616-3.918-5.018A6,6,0,0,1,.739,5.762a1.826,1.826,0,0,1-.356-.9l.013,0a2.8,2.8,0,0,1,.433-.045c.106,0,.164.016.172.048.823,1.752,3.143,1.851,3.166,1.851l-2.3-3.479H1.829c-.149,0-.427,0-.828-.009a.735.735,0,0,1-.565-.268C-.22,2.2.058.058.061.036A.861.861,0,0,1,.306,0c.26,0,.7.13.7,1,0,1,.81,1.087,1.57,1.087.138,0,.279,0,.415-.007s.273-.007.4-.007c.3,0,.764,0,1.3-.006.682,0,1.456-.009,2.114-.009s1.1,0,1.314.015h.046c.381,0,.485-.236.595-.485a1.01,1.01,0,0,1,.4-.53,1.779,1.779,0,0,1,.89-.232,1.348,1.348,0,0,1,.19.012h0v0a3.159,3.159,0,0,1-.527,2.021,1.149,1.149,0,0,1-.877.366c-.033,0-.067,0-.1,0H2.719A23.465,23.465,0,0,0,4.167,5.483c.354.4,1.247.432,2.132.432h.579c.2,0,.371,0,.505.008.093,0,.171,0,.235,0,.32,0,.342-.045.346-.358,0-.185.165-.272.513-.272.169,0,.364.019.552.038s.362.036.513.036a.293.293,0,0,1,.224.077.634.634,0,0,1,.073.455c-.011.213-.023.434.125.549a.717.717,0,0,1,.06.053c.078.075.078.075.85.142.894.077,2.986.259,7.657.783a102.667,102.667,0,0,0,11.35.585c4.25,0,7.915-.215,10.1-.343l.677-.039c2-.114,3.663-.241,5-.342,1.193-.091,2.134-.162,2.894-.195,1.422-.06,1.44-.173,1.48-.421.006-.036.012-.074.022-.116s.018-.074.025-.107c.043-.2.064-.3.37-.3a3.231,3.231,0,0,1,.389.031,6.807,6.807,0,0,0,.851.066,2.421,2.421,0,0,0,.895-.152,1.313,1.313,0,0,0,.114-.385c.019-.111.031-.184.1-.222a.562.562,0,0,1,.251-.036l.174,0h.034c.083,0,.173,0,.276,0,.12,0,.237,0,.357-.007.487-.02.956-.768,1.6-1.8.239-.382.51-.814.811-1.254a1.757,1.757,0,0,1,.457-.07.526.526,0,0,1,.457.178.735.735,0,0,1,0,.659A36.807,36.807,0,0,1,50.84,11.9a6.261,6.261,0,0,0-1.347,1.98c-.087.173-.169.337-.25.486a48.84,48.84,0,0,1-7.537,2.555A40.559,40.559,0,0,1,32.1,18.014Z" transform="translate(0 35.586)" fill="#fff"/>
        <path id="Path_339" data-name="Path 339" d="M7141.821,424.795s-.122-.4.061-.366,3.09.757,3.09.757l.22.33s-3.016-.806-2.8-.513S7141.821,424.795,7141.821,424.795Z" transform="translate(-7141.454 -384.306)" fill="#fff"/>
      </g>
    </g>
    <g id="Group_416" data-name="Group 416" transform="translate(-12163.744 1475.731)">
      <path id="Path_112538" data-name="Path 112538" d="M-78.241-11.246l-1.1-3.253h-6.108l-1.1,3.253q-.426,1.071-.069,1.51t1.963.494v1.4h-6.781v-1.4a4.055,4.055,0,0,0,1.935-.4,2.837,2.837,0,0,0,.961-1.524l5.683-16.362h3.143L-74-11.164a2.837,2.837,0,0,0,.961,1.524,4.055,4.055,0,0,0,1.935.4v1.4h-9.032v-1.4q1.592-.055,1.956-.494T-78.241-11.246Zm-4.132-12.285-2.512,7.4H-79.9Zm19.1,15.689h-7.481v-1.29a2.554,2.554,0,0,0,1.558-.4,2.037,2.037,0,0,0,.4-1.5V-24.712a1.42,1.42,0,0,0-.467-1.174,2.933,2.933,0,0,0-1.524-.487l-.055-1.18a28.053,28.053,0,0,0,5.092-.535q.494,0,.494.535V-11.04a2.016,2.016,0,0,0,.412,1.5,2.55,2.55,0,0,0,1.565.412Zm15.415-5.038V-24.121q0-1.277-.522-1.613a5.723,5.723,0,0,0-2.457-.377v-1.414h9.608v1.414a4.869,4.869,0,0,0-2.272.384q-.487.343-.487,1.606V-13.58a5.7,5.7,0,0,1-1.8,4.454A6.769,6.769,0,0,1-50.506-7.5a5.166,5.166,0,0,1-3.562-1.249,3.855,3.855,0,0,1-1.407-2.979,3.289,3.289,0,0,1,.707-2.2,2.36,2.36,0,0,1,1.9-.837,1.933,1.933,0,0,1,1.558.693,2.5,2.5,0,0,1,.583,1.668,1.739,1.739,0,0,0-.947.652,1.811,1.811,0,0,0-.343,1.091,1.434,1.434,0,0,0,.46,1.091,1.72,1.72,0,0,0,1.229.432,2.085,2.085,0,0,0,1.819-.947A4.946,4.946,0,0,0-47.857-12.88ZM-27.439-10.4l1.016.755a4.294,4.294,0,0,1-1.558,1.565,4.165,4.165,0,0,1-2.148.577,2.756,2.756,0,0,1-1.736-.535,2.321,2.321,0,0,1-.858-1.524,4.141,4.141,0,0,1-1.606,1.482,4.905,4.905,0,0,1-2.388.577,4.541,4.541,0,0,1-3.054-1.036,3.514,3.514,0,0,1-1.215-2.821,3.658,3.658,0,0,1,1.524-3.116,7.121,7.121,0,0,1,4.3-1.126h2.388v-2.141a2.968,2.968,0,0,0-.577-2.018,2.275,2.275,0,0,0-1.784-.645,2.418,2.418,0,0,0-1.455.391,1.175,1.175,0,0,0-.535.981.8.8,0,0,0,.467.81,1.787,1.787,0,0,1-.494,1.277,1.747,1.747,0,0,1-1.331.522,1.806,1.806,0,0,1-1.352-.542,1.949,1.949,0,0,1-.528-1.421A2.934,2.934,0,0,1-38.9-20.827,6.732,6.732,0,0,1-35-21.843a6.9,6.9,0,0,1,4.31,1.139,3.889,3.889,0,0,1,1.455,3.253V-10.4a1.037,1.037,0,0,0,.144.625.563.563,0,0,0,.474.185A1.475,1.475,0,0,0-27.439-10.4Zm-7.591.782a2.668,2.668,0,0,0,2.251-1.263V-14.2h-1.771a2.5,2.5,0,0,0-1.771.625,2.253,2.253,0,0,0-.673,1.736,2.393,2.393,0,0,0,.522,1.62A1.8,1.8,0,0,0-35.029-9.613Zm16.081,1.771H-26.43v-1.29a2.554,2.554,0,0,0,1.558-.4,2.037,2.037,0,0,0,.4-1.5V-24.712a1.42,1.42,0,0,0-.467-1.174,2.933,2.933,0,0,0-1.524-.487l-.055-1.18a28.053,28.053,0,0,0,5.092-.535q.494,0,.494.535V-11.04a2.016,2.016,0,0,0,.412,1.5,2.55,2.55,0,0,0,1.565.412Zm2.313.22V-24.712a1.42,1.42,0,0,0-.467-1.174,2.933,2.933,0,0,0-1.524-.487l-.055-1.18a28.053,28.053,0,0,0,5.092-.535q.494,0,.494.535V-19.7a4.5,4.5,0,0,1,1.675-1.551,4.727,4.727,0,0,1,2.32-.59,5.3,5.3,0,0,1,2.258.494,5.561,5.561,0,0,1,1.853,1.393A6.567,6.567,0,0,1-3.74-17.7a9.288,9.288,0,0,1,.46,2.992,7.334,7.334,0,0,1-1.832,5.3A6.349,6.349,0,0,1-9.91-7.5a5.908,5.908,0,0,1-4.3-1.688l-1.126,1.565ZM-10.418-19.7a2.812,2.812,0,0,0-1.558.467,3.131,3.131,0,0,0-1.119,1.277v7.028a3.065,3.065,0,0,0,1.064,1.489,2.745,2.745,0,0,0,1.668.528,2.516,2.516,0,0,0,2.279-1.4,8.954,8.954,0,0,0,.81-4.337,6.7,6.7,0,0,0-.872-3.8A2.654,2.654,0,0,0-10.418-19.7ZM1.868-20.978a7.531,7.531,0,0,1,3.617-.865,7.532,7.532,0,0,1,3.617.865,6.449,6.449,0,0,1,2.567,2.512,7.421,7.421,0,0,1,.954,3.788,7.421,7.421,0,0,1-.954,3.788A6.5,6.5,0,0,1,9.1-8.371,7.484,7.484,0,0,1,5.484-7.5a7.484,7.484,0,0,1-3.617-.872A6.5,6.5,0,0,1-.7-10.889a7.421,7.421,0,0,1-.954-3.788A7.421,7.421,0,0,1-.7-18.466,6.449,6.449,0,0,1,1.868-20.978ZM5.484-8.913q3.116,0,3.116-5.765T5.484-20.443q-3.13,0-3.13,5.765T5.484-8.913Zm12.23-12.065a7.531,7.531,0,0,1,3.617-.865,7.532,7.532,0,0,1,3.617.865,6.449,6.449,0,0,1,2.567,2.512,7.421,7.421,0,0,1,.954,3.788,7.421,7.421,0,0,1-.954,3.788,6.5,6.5,0,0,1-2.567,2.519,7.484,7.484,0,0,1-3.617.872,7.484,7.484,0,0,1-3.617-.872,6.5,6.5,0,0,1-2.567-2.519,7.421,7.421,0,0,1-.954-3.788,7.421,7.421,0,0,1,.954-3.788A6.449,6.449,0,0,1,17.715-20.978ZM21.332-8.913q3.116,0,3.116-5.765t-3.116-5.765q-3.13,0-3.13,5.765T21.332-8.913Zm17.645-1.88,1.071.865A5.394,5.394,0,0,1,37.92-8.151a6.522,6.522,0,0,1-2.883.652,3.555,3.555,0,0,1-2.649-.933,3.7,3.7,0,0,1-.92-2.7V-20.1H29.506V-21.17q3.514-.563,3.624-3.816h1.88V-21.5h4.53v1.4H35.01v8.8a2,2,0,0,0,.336,1.283,1.27,1.27,0,0,0,1.036.4,3.441,3.441,0,0,0,1.428-.323A3.256,3.256,0,0,0,38.977-10.793Z" transform="translate(91.432 65.459)" fill="#2d8c9e"/>
      <path id="Path_112539" data-name="Path 112539" d="M-59.011-7.743a3.3,3.3,0,0,1-2.672-1.036,4.178,4.178,0,0,1-.873-2.781v-6.381a1.6,1.6,0,0,1,.4-1.118A1.485,1.485,0,0,1-61-19.5a1.461,1.461,0,0,1,1.159.45,1.691,1.691,0,0,1,.4,1.159v5.508a2.855,2.855,0,0,0,.368,1.65,1.434,1.434,0,0,0,1.241.5H-49.9a1.868,1.868,0,0,0,1.786-1.309,7.727,7.727,0,0,0,.559-3.054,8.048,8.048,0,0,0-.464-2.959A5.254,5.254,0,0,0-49.6-19.632a1.544,1.544,0,0,1,.6-.818,2.075,2.075,0,0,1,1.309-.382A2.6,2.6,0,0,1-45.254-19.3a8.468,8.468,0,0,1,.8,3.954,11.956,11.956,0,0,1-.559,3.695,6.2,6.2,0,0,1-1.8,2.822,4.6,4.6,0,0,1-3.15,1.091Zm3.163-13.716a1.6,1.6,0,0,1-1.173-.491,1.6,1.6,0,0,1-.491-1.173,1.678,1.678,0,0,1,.491-1.213,1.579,1.579,0,0,1,1.173-.5,1.61,1.61,0,0,1,1.2.5,1.678,1.678,0,0,1,.491,1.213,1.587,1.587,0,0,1-.491,1.186A1.656,1.656,0,0,1-55.848-21.459Zm4.254,0a1.632,1.632,0,0,1-1.2-.491,1.6,1.6,0,0,1-.491-1.173,1.678,1.678,0,0,1,.491-1.213,1.61,1.61,0,0,1,1.2-.5,1.566,1.566,0,0,1,1.186.5,1.7,1.7,0,0,1,.477,1.213,1.61,1.61,0,0,1-.477,1.186A1.61,1.61,0,0,1-51.594-21.459ZM-27.816-7.743h-2.509v1.527A5.769,5.769,0,0,1-31.306-3q-.982,1.5-3.545,1.5a3.827,3.827,0,0,1-2.713-.859,2.691,2.691,0,0,1-.941-1.922,6.348,6.348,0,0,0,1.132.5,4.016,4.016,0,0,0,1.323.232,2.988,2.988,0,0,0,1.868-.573,1.879,1.879,0,0,0,.75-1.582l.027-2.045-2.672.055a4.62,4.62,0,0,1-3.858-1.568,7.914,7.914,0,0,1-1.241-4.922,9.1,9.1,0,0,1,.791-4.227,3.974,3.974,0,0,1,2.018-1.95,8.044,8.044,0,0,1,2.918-.477,7.418,7.418,0,0,1,2.863.464,3.263,3.263,0,0,1,1.677,1.718,8.757,8.757,0,0,1,.586,3.6v4.827h2.509Zm-10.253-6.544q0,4.063,2.4,4.063h2.236v-5.917a2.1,2.1,0,0,0-.614-1.691,2.306,2.306,0,0,0-1.541-.518A2.019,2.019,0,0,0-37.5-17.341,6.365,6.365,0,0,0-38.069-14.287Zm19.524,4.063v2.481h-3.381a4.294,4.294,0,0,1-2.618-.845,4.9,4.9,0,0,1-1.118.614,4,4,0,0,1-1.254.232h-1.173v-2.481h1.173a4.027,4.027,0,0,0,1.991-.6V-19.25a1.676,1.676,0,0,1,.382-1.145,1.477,1.477,0,0,1,1.173-.436,1.441,1.441,0,0,1,1.145.436,1.718,1.718,0,0,1,.382,1.173v7.035A3.484,3.484,0,0,0-21.6-10.77a.789.789,0,0,0,.736.545Zm-4.8,8.262a1.763,1.763,0,0,1-1.3-.532,1.731,1.731,0,0,1-.532-1.268,1.731,1.731,0,0,1,.532-1.268,1.763,1.763,0,0,1,1.3-.532,1.731,1.731,0,0,1,1.268.532,1.731,1.731,0,0,1,.532,1.268,1.731,1.731,0,0,1-.532,1.268A1.731,1.731,0,0,1-23.344-1.962Zm4.527-8.262h1.8A1.03,1.03,0,0,0-16-10.851a4.3,4.3,0,0,0,.286-1.745v-9.135a3.158,3.158,0,0,0-.4-1.772,2.944,2.944,0,0,0-.968-.9,1.671,1.671,0,0,1,.641-.873,2.085,2.085,0,0,1,1.377-.464,2.209,2.209,0,0,1,1.759.818,3.523,3.523,0,0,1,.7,2.345v10.062a5.575,5.575,0,0,1-1.05,3.477,3.34,3.34,0,0,1-2.768,1.3h-2.4ZM-4.583-7.743A3.316,3.316,0,0,1-7.337-9.024a5.568,5.568,0,0,1-1.036-3.463v-9.244a3.1,3.1,0,0,0-.4-1.745,3.241,3.241,0,0,0-.968-.927,1.772,1.772,0,0,1,.627-.859,2.035,2.035,0,0,1,1.391-.477,2.157,2.157,0,0,1,1.745.832,3.582,3.582,0,0,1,.682,2.331v10.008a2.993,2.993,0,0,0,.436,1.691,1.417,1.417,0,0,0,1.254.654h1.145v2.481Zm16.661-2.481v2.481h-.927a4.179,4.179,0,0,1-2.727-.845,5.144,5.144,0,0,1-2.945.845H-2.729v-2.481H4.579a3.283,3.283,0,0,0,1.459-.354,3.01,3.01,0,0,0,1.241-1.241A4.591,4.591,0,0,0,7.8-14.151a3.748,3.748,0,0,0-1.35-3.231,6.419,6.419,0,0,0-3.858-1H.38a2.115,2.115,0,0,1-1.663-.641,2.568,2.568,0,0,1-.627-1.622,1.654,1.654,0,0,1,.082-.709q.109-.273.273-.3a1.807,1.807,0,0,0,.886.627,4.465,4.465,0,0,0,1.677.273l1.363-.027L3.9-20.832a8.017,8.017,0,0,1,3.559.777,5.99,5.99,0,0,1,2.522,2.277,6.606,6.606,0,0,1,.927,3.545,9.026,9.026,0,0,1-.245,2.059,7.719,7.719,0,0,1-.736,1.95ZM4.8-1.962a1.763,1.763,0,0,1-1.3-.532A1.731,1.731,0,0,1,2.97-3.762,1.731,1.731,0,0,1,3.5-5.03a1.763,1.763,0,0,1,1.3-.532,1.731,1.731,0,0,1,1.268.532A1.731,1.731,0,0,1,6.6-3.762a1.731,1.731,0,0,1-.532,1.268A1.731,1.731,0,0,1,4.8-1.962Zm7.008-8.262h1.8a1.03,1.03,0,0,0,1.023-.627,4.3,4.3,0,0,0,.286-1.745v-9.135a3.158,3.158,0,0,0-.4-1.772,2.944,2.944,0,0,0-.968-.9,1.671,1.671,0,0,1,.641-.873,2.085,2.085,0,0,1,1.377-.464,2.209,2.209,0,0,1,1.759.818,3.523,3.523,0,0,1,.7,2.345v10.062a5.575,5.575,0,0,1-1.05,3.477,3.34,3.34,0,0,1-2.768,1.3h-2.4ZM23.776-7.743q-1.527,0-1.527-1.8V-21.732a3.1,3.1,0,0,0-.4-1.745,3.241,3.241,0,0,0-.968-.927,1.772,1.772,0,0,1,.627-.859A2.035,2.035,0,0,1,22.9-25.74a2.157,2.157,0,0,1,1.745.832,3.582,3.582,0,0,1,.682,2.331V-9.515Q25.33-7.743,23.776-7.743Z" transform="translate(85.4 25.74)" fill="#fff" stroke="#fff" stroke-width="0.5"/>
    </g>
  </g>
</svg>
