<svg xmlns="http://www.w3.org/2000/svg" xmlns:xlink="http://www.w3.org/1999/xlink" width="192.458" height="212.563" viewBox="0 0 192.458 212.563">
  <defs>
    <linearGradient id="linear-gradient" x1="0.5" x2="0.5" y2="1" gradientUnits="objectBoundingBox">
      <stop offset="0" stop-color="#094c58"/>
      <stop offset="1" stop-color="#2d8c9e"/>
    </linearGradient>
    <linearGradient id="linear-gradient-3" x1="0.5" x2="0.5" y2="1" gradientUnits="objectBoundingBox">
      <stop offset="0" stop-color="#2d8c9e"/>
      <stop offset="1" stop-color="#60e6ff"/>
    </linearGradient>
  </defs>
  <g id="logo" transform="translate(0 0.424)">
    <g id="Group_416" data-name="Group 416" transform="translate(-9 -287.736)">
      <path id="Path_112538" data-name="Path 112538" d="M-72.283-3.639l-1.594-4.722h-8.867l-1.594,4.722q-.618,1.554-.1,2.192t2.849.717V1.3h-9.843V-.73a5.886,5.886,0,0,0,2.81-.578A4.118,4.118,0,0,0-87.227-3.52l8.249-23.752h4.563L-66.126-3.52a4.118,4.118,0,0,0,1.395,2.212,5.886,5.886,0,0,0,2.81.578V1.3H-75.033V-.73q2.311-.08,2.839-.717T-72.283-3.639Zm-6-17.834-3.646,10.74h7.233ZM-50.553,1.3h-10.86V-.571a3.707,3.707,0,0,0,2.262-.588,2.957,2.957,0,0,0,.588-2.182V-23.187a2.062,2.062,0,0,0-.677-1.7,4.258,4.258,0,0,0-2.212-.707l-.08-1.714a40.723,40.723,0,0,0,7.393-.777q.717,0,.717.777V-3.34a2.927,2.927,0,0,0,.6,2.172,3.7,3.7,0,0,0,2.272.6ZM-28.175-6.01V-22.33q0-1.853-.757-2.341a8.308,8.308,0,0,0-3.567-.548v-2.052h13.948v2.052a7.069,7.069,0,0,0-3.3.558q-.707.5-.707,2.331v15.3a8.28,8.28,0,0,1-2.61,6.466A9.826,9.826,0,0,1-32.021,1.8,7.5,7.5,0,0,1-37.192-.013a5.6,5.6,0,0,1-2.042-4.324,4.775,4.775,0,0,1,1.026-3.188,3.426,3.426,0,0,1,2.76-1.215,2.806,2.806,0,0,1,2.262,1.006,3.636,3.636,0,0,1,.847,2.421,2.524,2.524,0,0,0-1.375.946,2.63,2.63,0,0,0-.5,1.584A2.082,2.082,0,0,0-33.545-1.2a2.5,2.5,0,0,0,1.783.628,3.027,3.027,0,0,0,2.64-1.375A7.18,7.18,0,0,0-28.175-6.01ZM1.465-2.4l1.475,1.1A6.233,6.233,0,0,1,.678.964,6.046,6.046,0,0,1-2.44,1.8a4,4,0,0,1-2.521-.777A3.37,3.37,0,0,1-6.206-1.188,6.011,6.011,0,0,1-8.538.964,7.121,7.121,0,0,1-12,1.8,6.592,6.592,0,0,1-16.438.3,5.1,5.1,0,0,1-18.2-3.8,5.31,5.31,0,0,1-15.99-8.322,10.338,10.338,0,0,1-9.753-9.956h3.467v-3.108a4.309,4.309,0,0,0-.837-2.929,3.3,3.3,0,0,0-2.59-.937,3.51,3.51,0,0,0-2.112.568,1.705,1.705,0,0,0-.777,1.425,1.158,1.158,0,0,0,.677,1.176,2.594,2.594,0,0,1-.717,1.853,2.536,2.536,0,0,1-1.933.757,2.622,2.622,0,0,1-1.963-.787A2.829,2.829,0,0,1-17.305-14a4.259,4.259,0,0,1,2.132-3.547,9.772,9.772,0,0,1,5.659-1.475q4.145,0,6.257,1.654a5.645,5.645,0,0,1,2.112,4.722V-2.4A1.5,1.5,0,0,0-.936-1.5a.818.818,0,0,0,.687.269A2.141,2.141,0,0,0,1.465-2.4ZM-9.554-1.268A3.873,3.873,0,0,0-6.286-3.1V-7.923h-2.57a3.627,3.627,0,0,0-2.57.907A3.27,3.27,0,0,0-12.4-4.5a3.473,3.473,0,0,0,.757,2.351A2.618,2.618,0,0,0-9.554-1.268ZM13.79,1.3H2.93V-.571a3.707,3.707,0,0,0,2.262-.588A2.957,2.957,0,0,0,5.779-3.34V-23.187a2.062,2.062,0,0,0-.677-1.7A4.258,4.258,0,0,0,2.89-25.6l-.08-1.714a40.723,40.723,0,0,0,7.393-.777q.717,0,.717.777V-3.34a2.927,2.927,0,0,0,.6,2.172,3.7,3.7,0,0,0,2.272.6Zm3.358.319V-23.187a2.062,2.062,0,0,0-.677-1.7,4.258,4.258,0,0,0-2.212-.707l-.08-1.714a40.723,40.723,0,0,0,7.393-.777q.717,0,.717.777v11.4a6.525,6.525,0,0,1,2.431-2.252,6.863,6.863,0,0,1,3.368-.857,7.687,7.687,0,0,1,3.278.717,8.073,8.073,0,0,1,2.69,2.022A9.533,9.533,0,0,1,35.868-13a13.483,13.483,0,0,1,.668,4.344q0,4.922-2.66,7.691A9.217,9.217,0,0,1,26.911,1.8,8.576,8.576,0,0,1,20.675-.65L19.041,1.621Zm9.027-17.535a4.082,4.082,0,0,0-2.262.677,4.545,4.545,0,0,0-1.624,1.853v10.2a4.449,4.449,0,0,0,1.544,2.162,3.985,3.985,0,0,0,2.421.767,3.652,3.652,0,0,0,3.308-2.032q1.176-2.032,1.176-6.3a9.718,9.718,0,0,0-1.265-5.51A3.853,3.853,0,0,0,26.174-15.914Zm17.834-1.853a10.933,10.933,0,0,1,5.251-1.255,10.933,10.933,0,0,1,5.251,1.255,9.362,9.362,0,0,1,3.726,3.646,10.773,10.773,0,0,1,1.385,5.5,10.773,10.773,0,0,1-1.385,5.5A9.432,9.432,0,0,1,54.509.535,10.864,10.864,0,0,1,49.259,1.8,10.864,10.864,0,0,1,44.008.535a9.432,9.432,0,0,1-3.726-3.656,10.773,10.773,0,0,1-1.385-5.5,10.773,10.773,0,0,1,1.385-5.5A9.362,9.362,0,0,1,44.008-17.767ZM49.259-.252q4.523,0,4.523-8.369T49.259-16.99q-4.543,0-4.543,8.369T49.259-.252ZM67.013-17.767a10.933,10.933,0,0,1,5.251-1.255,10.933,10.933,0,0,1,5.251,1.255,9.362,9.362,0,0,1,3.726,3.646,10.773,10.773,0,0,1,1.385,5.5,10.773,10.773,0,0,1-1.385,5.5A9.431,9.431,0,0,1,77.514.535,10.864,10.864,0,0,1,72.264,1.8,10.864,10.864,0,0,1,67.013.535a9.432,9.432,0,0,1-3.726-3.656,10.773,10.773,0,0,1-1.385-5.5,10.773,10.773,0,0,1,1.385-5.5A9.362,9.362,0,0,1,67.013-17.767ZM72.264-.252q4.523,0,4.523-8.369T72.264-16.99q-4.543,0-4.543,8.369T72.264-.252Zm25.615-2.73,1.554,1.255A7.831,7.831,0,0,1,96.345.854,9.468,9.468,0,0,1,92.16,1.8,5.16,5.16,0,0,1,88.315.446,5.363,5.363,0,0,1,86.98-3.48V-16.491H84.13v-1.554q5.1-.817,5.26-5.539h2.73v5.061H98.7v2.032H92.121V-3.719a2.9,2.9,0,0,0,.488,1.863,1.844,1.844,0,0,0,1.5.588,5,5,0,0,0,2.072-.468A4.726,4.726,0,0,0,97.879-2.982Z" transform="translate(101.15 498.074)" fill="#2d8c9e"/>
      <path id="Path_112539" data-name="Path 112539" d="M-57.41.386a4.788,4.788,0,0,1-3.879-1.5,6.065,6.065,0,0,1-1.267-4.038v-9.263a2.324,2.324,0,0,1,.574-1.623,2.155,2.155,0,0,1,1.682-.633,2.12,2.12,0,0,1,1.682.653,2.455,2.455,0,0,1,.574,1.682v8a4.144,4.144,0,0,0,.534,2.395,2.081,2.081,0,0,0,1.8.732h11.519a2.711,2.711,0,0,0,2.593-1.9,11.218,11.218,0,0,0,.811-4.434,11.684,11.684,0,0,0-.673-4.295,7.627,7.627,0,0,0-2.3-3.028,2.241,2.241,0,0,1,.871-1.188,3.012,3.012,0,0,1,1.9-.554A3.78,3.78,0,0,1-37.439-16.4a12.293,12.293,0,0,1,1.168,5.74,17.356,17.356,0,0,1-.811,5.364A9.007,9.007,0,0,1-39.7-1.2,6.671,6.671,0,0,1-44.268.386Zm4.592-19.911a2.323,2.323,0,0,1-1.7-.713,2.323,2.323,0,0,1-.713-1.7A2.435,2.435,0,0,1-54.52-23.7a2.292,2.292,0,0,1,1.7-.732,2.337,2.337,0,0,1,1.742.732,2.435,2.435,0,0,1,.713,1.762,2.3,2.3,0,0,1-.713,1.722A2.4,2.4,0,0,1-52.818-19.525Zm6.175,0a2.369,2.369,0,0,1-1.742-.713,2.323,2.323,0,0,1-.713-1.7,2.435,2.435,0,0,1,.713-1.762,2.337,2.337,0,0,1,1.742-.732,2.274,2.274,0,0,1,1.722.732,2.472,2.472,0,0,1,.693,1.762,2.338,2.338,0,0,1-.693,1.722A2.338,2.338,0,0,1-46.643-19.525ZM-12.125.386h-3.642V2.6a8.374,8.374,0,0,1-1.425,4.671q-1.425,2.177-5.146,2.177A5.555,5.555,0,0,1-26.276,8.2a3.906,3.906,0,0,1-1.366-2.791A9.215,9.215,0,0,0-26,6.146a5.83,5.83,0,0,0,1.92.336,4.337,4.337,0,0,0,2.712-.831,2.728,2.728,0,0,0,1.089-2.3l.04-2.969-3.879.079q-3.8,0-5.6-2.276t-1.8-7.145a13.216,13.216,0,0,1,1.148-6.136,5.77,5.77,0,0,1,2.929-2.83,11.677,11.677,0,0,1,4.236-.693,10.768,10.768,0,0,1,4.156.673,4.737,4.737,0,0,1,2.434,2.494,12.713,12.713,0,0,1,.851,5.225v7.007h3.642Zm-14.884-9.5q0,5.9,3.483,5.9h3.246v-8.59a3.046,3.046,0,0,0-.891-2.454,3.347,3.347,0,0,0-2.237-.752,2.931,2.931,0,0,0-2.771,1.465A9.239,9.239,0,0,0-27.009-9.114Zm28.343,5.9v3.6H-3.574a6.233,6.233,0,0,1-3.8-1.227A7.118,7.118,0,0,1-9,.05a5.811,5.811,0,0,1-1.821.336h-1.7v-3.6h1.7a5.845,5.845,0,0,0,2.89-.871V-16.319a2.433,2.433,0,0,1,.554-1.663,2.144,2.144,0,0,1,1.7-.633,2.092,2.092,0,0,1,1.663.633,2.493,2.493,0,0,1,.554,1.7V-6.066A5.057,5.057,0,0,0-3.1-4.008a1.145,1.145,0,0,0,1.069.792ZM-5.633,8.778a2.559,2.559,0,0,1-1.88-.772,2.513,2.513,0,0,1-.772-1.841,2.513,2.513,0,0,1,.772-1.841,2.559,2.559,0,0,1,1.88-.772,2.513,2.513,0,0,1,1.841.772A2.513,2.513,0,0,1-3.02,6.165a2.513,2.513,0,0,1-.772,1.841A2.513,2.513,0,0,1-5.633,8.778ZM.938-3.216H3.551a1.5,1.5,0,0,0,1.484-.91A6.243,6.243,0,0,0,5.451-6.66V-19.921a4.584,4.584,0,0,0-.574-2.573A4.274,4.274,0,0,0,3.472-23.8a2.426,2.426,0,0,1,.93-1.267,3.027,3.027,0,0,1,2-.673,3.207,3.207,0,0,1,2.553,1.188,5.114,5.114,0,0,1,1.009,3.4V-6.541A8.093,8.093,0,0,1,8.44-1.494,4.849,4.849,0,0,1,4.422.386H.938ZM21.6.386a4.814,4.814,0,0,1-4-1.86A8.083,8.083,0,0,1,16.1-6.5V-19.921a4.5,4.5,0,0,0-.574-2.533A4.705,4.705,0,0,0,14.12-23.8a2.572,2.572,0,0,1,.91-1.247,2.954,2.954,0,0,1,2.019-.693,3.131,3.131,0,0,1,2.533,1.207,5.2,5.2,0,0,1,.99,3.385V-6.62a4.344,4.344,0,0,0,.633,2.454,2.057,2.057,0,0,0,1.821.95h1.663v3.6Zm24.186-3.6v3.6H44.442A6.066,6.066,0,0,1,40.484-.841,7.467,7.467,0,0,1,36.208.386H24.293v-3.6H34.9a4.766,4.766,0,0,0,2.118-.515,4.369,4.369,0,0,0,1.8-1.8,6.664,6.664,0,0,0,.752-3.385q0-3.246-1.959-4.691a9.319,9.319,0,0,0-5.6-1.445H28.806a3.07,3.07,0,0,1-2.415-.93,3.728,3.728,0,0,1-.91-2.355,2.4,2.4,0,0,1,.119-1.029q.158-.4.4-.435a2.624,2.624,0,0,0,1.287.91,6.481,6.481,0,0,0,2.434.4l1.979-.04,2.217-.079a11.638,11.638,0,0,1,5.166,1.128,8.7,8.7,0,0,1,3.662,3.305,9.589,9.589,0,0,1,1.346,5.146,13.1,13.1,0,0,1-.356,2.989,11.206,11.206,0,0,1-1.069,2.83ZM35.219,8.778a2.559,2.559,0,0,1-1.88-.772,2.581,2.581,0,0,1,0-3.681,2.559,2.559,0,0,1,1.88-.772,2.513,2.513,0,0,1,1.841.772,2.581,2.581,0,0,1,0,3.681A2.513,2.513,0,0,1,35.219,8.778ZM45.392-3.216H48a1.5,1.5,0,0,0,1.484-.91A6.243,6.243,0,0,0,49.9-6.66V-19.921a4.584,4.584,0,0,0-.574-2.573A4.274,4.274,0,0,0,47.926-23.8a2.426,2.426,0,0,1,.93-1.267,3.027,3.027,0,0,1,2-.673,3.207,3.207,0,0,1,2.553,1.188,5.114,5.114,0,0,1,1.009,3.4V-6.541a8.093,8.093,0,0,1-1.524,5.047A4.849,4.849,0,0,1,48.876.386H45.392ZM62.77.386q-2.217,0-2.217-2.613V-19.921a4.5,4.5,0,0,0-.574-2.533A4.705,4.705,0,0,0,58.574-23.8a2.572,2.572,0,0,1,.91-1.247A2.954,2.954,0,0,1,61.5-25.74a3.131,3.131,0,0,1,2.533,1.207,5.2,5.2,0,0,1,.99,3.385V-2.187Q65.026.386,62.77.386Z" transform="translate(105.436 441.476)" fill="#fff" stroke="#fff" stroke-width="0.5"/>
    </g>
    <g id="Group_370" data-name="Group 370" transform="translate(0 0)">
      <g id="Group_5" data-name="Group 5" transform="translate(0 57.208)">
        <path id="Path_8" data-name="Path 8" d="M2204.36,1107.074a54.148,54.148,0,0,1-16.19,1.758c-23.53-.773-36.148-11.622-61.951-15.1-6.9-.932-14.043.226-20.517,2.185,0,0,12.353-.381,21.785,4.026s24.9,13.684,50.872,13.066c0,0-9.947,7.739-37.471.029s-35.77-18.636-57.006-5.029c0,0,17.859-2.422,32.781,5.464s27.987,11.751,42.522,10.514S2188.874,1117.259,2204.36,1107.074Z" transform="translate(-2083.882 -1093.401)" fill="url(#linear-gradient)"/>
        <path id="Path_9" data-name="Path 9" d="M2512.3,1111.368a51.439,51.439,0,0,0-17.647-2.439c-7.993.439-14.63,3.182-19.806,5.632-14.643,6.933-29.733,21.774-60.372,23.557,0,0,27.006,9.587,63.652-4.484s46.9-9.69,56.387-7.937c0,0-7.422-10-24.328-8.35s-43.6,16.287-60.3,15.463c0,0,5.876-.206,22.884-10.308S2512.3,1111.368,2512.3,1111.368Z" transform="translate(-2342.06 -1105.524)" fill="url(#linear-gradient)"/>
      </g>
      <g id="Group_6" data-name="Group 6" transform="translate(42.336 1.11)">
        <path id="Path_10" data-name="Path 10" d="M2386.014,879.841l-24.328-2.556,23.656-.033a54.973,54.973,0,0,0-8.45-17.26l-27.112-2.734h24.986a55.163,55.163,0,0,0-87.146,2.874h25.513l-27.444,2.843a54.881,54.881,0,0,0-6.626,15.04l26.339.208-26.993,2.474a55.329,55.329,0,0,0-1.257,11.184c25.781,3.381,38.421,14.33,61.95,15.1,23.339.767,30.227-11.034,48.31-12.026.036-.823.058-1.651.058-2.483A55.3,55.3,0,0,0,2386.014,879.841Z" transform="translate(-2277.151 -837.311)" fill="url(#linear-gradient-3)"/>
      </g>
      <g id="Group_413" data-name="Group 413" transform="translate(64.023 0)">
        <path id="Path_342" data-name="Path 342" d="M.646.581A50.829,50.829,0,0,1,3.567,6.02H4.745L1.469,0,0,.274Z" transform="translate(11.162 50.671) rotate(-3)" fill="#fff"/>
        <g id="Group_415" data-name="Group 415" transform="translate(8.895)">
          <path id="Path_333" data-name="Path 333" d="M7220.735,76.555l47.248,46.97" transform="translate(-7209.121 -76.555)" fill="none" stroke="#fff" stroke-linecap="round" stroke-width="0.6"/>
          <path id="Path_340" data-name="Path 340" d="M7397.063,214.2l-3.544,42.229" transform="translate(-7358.899 -197.172)" fill="none" stroke="#fff" stroke-linecap="round" stroke-width="1"/>
          <path id="Path_341" data-name="Path 341" d="M7301.952,254.439l-1.925,36.051" transform="translate(-7281.407 -230.522)" fill="none" stroke="#fff" stroke-linecap="round" stroke-width="1"/>
          <path id="Path_334" data-name="Path 334" d="M7279.938,165.894c.7-34.438-18.239-48.963-18.239-48.963s5.7,6.348,29.588,23.67,28.727,31.416,28.727,31.416S7307.772,156.094,7279.938,165.894Z" transform="translate(-7249.639 -116.377)" fill="#fff"/>
          <path id="Path_335" data-name="Path 335" d="M7166.179,198.764c3.931,2.385,11.293,7.159,28.256,19.863" transform="translate(-7166.179 -181.781)" fill="none" stroke="#fff" stroke-linecap="round" stroke-width="0.6"/>
          <path id="Path_336" data-name="Path 336" d="M7220.106,256.29c-4.305-10.236-5.729-27.727-10.072-30.567s9.583,5.3,24.85,15.5,20.175,17.683,20.175,17.683A57.646,57.646,0,0,0,7220.106,256.29Z" transform="translate(-7206.149 -206.246)" fill="#fff"/>
          <path id="Path_337" data-name="Path 337" d="M7191.983,405.353c9.407-5.153,15.611-7.066,25.106-7.435s21.019,2.627,24.659,4.794a26.86,26.86,0,0,1,5.993,4.886" transform="translate(-7191.855 -349.421)" fill="none" stroke="#fff" stroke-linecap="round" stroke-width="0.6"/>
        </g>
        <path id="Subtraction_2" data-name="Subtraction 2" d="M42.417,23.8c-.693,0-1.417-.012-2.153-.036a78.1,78.1,0,0,1-16.351-2.3c-4.964-1.226-9.684-2.837-14.485-4.519,0-.058.008-.112.013-.162.207-1.894-1.324-4.777-5.177-6.63A7.925,7.925,0,0,1,.976,7.613,2.412,2.412,0,0,1,.506,6.43l.017,0a3.7,3.7,0,0,1,.572-.059c.14,0,.217.021.227.063C2.409,8.744,5.474,8.875,5.505,8.876l-3.041-4.6H2.416c-.2,0-.564,0-1.094-.012a.971.971,0,0,1-.747-.355C-.291,2.908.076.076.08.048A1.137,1.137,0,0,1,.4,0c.343,0,.919.172.919,1.324C1.322,2.649,2.393,2.76,3.4,2.76c.182,0,.368,0,.548-.009s.361-.009.533-.009c.4,0,1.009,0,1.711-.008.9-.005,1.923-.011,2.793-.011s1.45.006,1.736.019h.06c.5,0,.641-.311.786-.641a1.334,1.334,0,0,1,.527-.7A2.351,2.351,0,0,1,13.268,1.1a1.781,1.781,0,0,1,.251.015h0v0a4.174,4.174,0,0,1-.7,2.671,1.517,1.517,0,0,1-1.158.484c-.043,0-.088,0-.133,0H3.592A31,31,0,0,0,5.505,7.245c.468.526,1.648.57,2.817.57h.764c.27,0,.49.006.667.01.123,0,.226.006.311.006.423,0,.452-.059.457-.473,0-.245.219-.359.678-.359.223,0,.481.026.73.05s.479.048.678.048a.387.387,0,0,1,.3.1.838.838,0,0,1,.1.6c-.015.282-.03.573.165.725a.947.947,0,0,1,.08.07c.1.1.1.1,1.123.187,1.181.1,3.946.342,10.117,1.034a135.648,135.648,0,0,0,15,.773c5.615,0,10.458-.284,13.351-.453l.894-.052c2.646-.151,4.84-.318,6.6-.452,1.576-.12,2.82-.215,3.824-.257,1.879-.08,1.9-.229,1.955-.556.008-.048.016-.1.03-.153s.023-.1.033-.142c.056-.26.085-.39.489-.39a4.268,4.268,0,0,1,.513.041,8.993,8.993,0,0,0,1.125.088,3.2,3.2,0,0,0,1.182-.2,1.734,1.734,0,0,0,.15-.509c.025-.146.041-.243.136-.293A.742.742,0,0,1,70.1,7.21c.066,0,.142,0,.229,0h.045c.109,0,.229,0,.364,0,.159,0,.313,0,.472-.009.644-.026,1.263-1.015,2.12-2.384.316-.5.673-1.076,1.071-1.657a2.321,2.321,0,0,1,.6-.092.7.7,0,0,1,.6.235.971.971,0,0,1-.006.871,48.632,48.632,0,0,1-8.428,11.538,8.272,8.272,0,0,0-1.779,2.616c-.115.229-.223.445-.33.642A64.529,64.529,0,0,1,55.1,22.353,53.588,53.588,0,0,1,42.417,23.8Z" transform="translate(0 47.018)" fill="#fff"/>
        <path id="Path_339" data-name="Path 339" d="M7141.834,424.913s-.161-.533.081-.484,4.083,1,4.083,1l.29.436s-3.985-1.065-3.7-.678S7141.834,424.913,7141.834,424.913Z" transform="translate(-7141.35 -371.418)" fill="#fff"/>
      </g>
    </g>
  </g>
</svg>
