<svg xmlns="http://www.w3.org/2000/svg" width="302.36" height="60.39" viewBox="0 0 302.36 60.39">
  <g id="Admin-Logo" transform="translate(-584 -1907)">
    <g id="Group_60201" data-name="Group 60201" transform="translate(-32 -38)">
      <g id="logo_small" transform="translate(616 1944.934)">
        <rect id="Rectangle_11734" data-name="Rectangle 11734" width="46" height="60" transform="translate(0 0.419)" fill="none"/>
        <g id="Advisor_Book" data-name="Advisor Book" transform="translate(0.369 0.066)">
          <path id="Path_1" data-name="Path 1" d="M88.822,120.89l-2.473,7.1-1.628,4.69-2.893,8.3-8.314,23.94H59.53l15.315-44,.009-.03Z" transform="translate(-59.53 -104.526)" fill="#3953a4"/>
          <path id="Path_2" data-name="Path 2" d="M245.087,164.886H231.1L222.789,141l-.009-.026,2.679-7.694,4.933,14.174.839-1.868,2.349,1.642-6.391-18.342a.894.894,0,0,1,0-.584l2.582-7.415.009.03Z" transform="translate(-199.594 -104.526)" fill="#3953a4"/>
          <ellipse id="Ellipse_1" data-name="Ellipse 1" cx="7.198" cy="7.205" rx="7.198" ry="7.205" transform="translate(15.789 0)" fill="#3953a4"/>
        </g>
      </g>
      <path id="Path_105600" data-name="Path 105600" d="M14.91-3.87H6.96L5.64,0H.24L8.01-21.06h5.91L21.69,0H16.23Zm-1.32-3.9-2.64-7.8L8.28-7.77Zm29.46-2.88a11.25,11.25,0,0,1-1.335,5.535,9.351,9.351,0,0,1-3.84,3.765A12.246,12.246,0,0,1,31.98,0H23.97V-21.21h8.01a12.453,12.453,0,0,1,5.91,1.32,9.209,9.209,0,0,1,3.825,3.72A11.165,11.165,0,0,1,43.05-10.65ZM31.53-4.59a6.483,6.483,0,0,0,4.665-1.59,5.887,5.887,0,0,0,1.665-4.47,5.887,5.887,0,0,0-1.665-4.47,6.483,6.483,0,0,0-4.665-1.59H29.1V-4.59ZM50.22-21.21,55.41-5.25,60.6-21.21h5.49L58.71,0H52.08L44.73-21.21Zm23.28,0V0H68.37V-21.21ZM92.58-5.97a5.848,5.848,0,0,1-.855,3.09,6.03,6.03,0,0,1-2.52,2.25A8.879,8.879,0,0,1,85.17.21a9.5,9.5,0,0,1-5.88-1.74,6.3,6.3,0,0,1-2.52-4.86h5.46a2.882,2.882,0,0,0,.855,1.89,2.63,2.63,0,0,0,1.875.69,2.176,2.176,0,0,0,1.56-.54,1.89,1.89,0,0,0,.57-1.44,1.859,1.859,0,0,0-.525-1.35,4.116,4.116,0,0,0-1.305-.885q-.78-.345-2.16-.825a26.519,26.519,0,0,1-3.285-1.335,6.05,6.05,0,0,1-2.19-1.92,5.556,5.556,0,0,1-.915-3.315,5.582,5.582,0,0,1,.96-3.27,6.1,6.1,0,0,1,2.655-2.115,9.684,9.684,0,0,1,3.885-.735,8.709,8.709,0,0,1,5.625,1.68,6.41,6.41,0,0,1,2.355,4.62H86.64a2.846,2.846,0,0,0-.765-1.665,2.25,2.25,0,0,0-1.665-.615,2.145,2.145,0,0,0-1.455.48,1.763,1.763,0,0,0-.555,1.41,1.791,1.791,0,0,0,.5,1.275,3.772,3.772,0,0,0,1.245.855q.75.33,2.16.84A23.742,23.742,0,0,1,89.43-11.3,6.37,6.37,0,0,1,91.65-9.33,5.614,5.614,0,0,1,92.58-5.97Zm13.23-15.57a10.792,10.792,0,0,1,5.445,1.4,10.163,10.163,0,0,1,3.855,3.87,11.1,11.1,0,0,1,1.41,5.6A11.091,11.091,0,0,1,115.1-5.07a10.241,10.241,0,0,1-3.87,3.885A10.733,10.733,0,0,1,105.81.21a10.733,10.733,0,0,1-5.415-1.4,10.241,10.241,0,0,1-3.87-3.885A11.091,11.091,0,0,1,95.1-10.68a11.009,11.009,0,0,1,1.425-5.6,10.271,10.271,0,0,1,3.87-3.87A10.733,10.733,0,0,1,105.81-21.54Zm0,4.77a5.143,5.143,0,0,0-4,1.635,6.377,6.377,0,0,0-1.485,4.455,6.389,6.389,0,0,0,1.485,4.44,5.12,5.12,0,0,0,4,1.65,5.131,5.131,0,0,0,3.99-1.65,6.349,6.349,0,0,0,1.5-4.44,6.389,6.389,0,0,0-1.485-4.44A5.12,5.12,0,0,0,105.81-16.77ZM130.59,0,126-8.01h-1.17V0H119.7V-21.21h8.76a9.457,9.457,0,0,1,4.26.87,6.008,6.008,0,0,1,2.61,2.385,6.832,6.832,0,0,1,.87,3.465,6.159,6.159,0,0,1-1.275,3.93,6.518,6.518,0,0,1-3.705,2.22L136.26,0Zm-5.76-11.52h3.18a3.2,3.2,0,0,0,2.25-.675,2.605,2.605,0,0,0,.72-1.995,2.645,2.645,0,0,0-.735-1.98,3.08,3.08,0,0,0-2.235-.72h-3.18Zm32.58-9.69L150.06-7.05V0H144.9V-7.05l-7.35-14.16h5.88l4.08,8.64,4.08-8.64Zm21.3,10.29a5.311,5.311,0,0,1,3.045,1.86,5.092,5.092,0,0,1,1.125,3.27,5.269,5.269,0,0,1-1.815,4.26A7.864,7.864,0,0,1,175.86,0h-9.87V-21.21h9.63a7.863,7.863,0,0,1,5.01,1.41,4.841,4.841,0,0,1,1.77,4.02,4.953,4.953,0,0,1-1.02,3.195A4.7,4.7,0,0,1,178.71-10.92Zm-7.59-1.62h3.36q2.67,0,2.67-2.28t-2.73-2.28h-3.3Zm3.66,8.37q2.85,0,2.85-2.34a2.229,2.229,0,0,0-.75-1.785,3.171,3.171,0,0,0-2.13-.645h-3.63v4.77Zm21.18-17.37a10.792,10.792,0,0,1,5.445,1.4,10.163,10.163,0,0,1,3.855,3.87,11.1,11.1,0,0,1,1.41,5.6,11.091,11.091,0,0,1-1.425,5.61,10.241,10.241,0,0,1-3.87,3.885A10.733,10.733,0,0,1,195.96.21a10.733,10.733,0,0,1-5.415-1.4,10.241,10.241,0,0,1-3.87-3.885,11.091,11.091,0,0,1-1.425-5.61,11.009,11.009,0,0,1,1.425-5.6,10.272,10.272,0,0,1,3.87-3.87A10.734,10.734,0,0,1,195.96-21.54Zm0,4.77a5.143,5.143,0,0,0-4.005,1.635,6.377,6.377,0,0,0-1.485,4.455,6.389,6.389,0,0,0,1.485,4.44,5.12,5.12,0,0,0,4.005,1.65,5.131,5.131,0,0,0,3.99-1.65,6.349,6.349,0,0,0,1.5-4.44,6.389,6.389,0,0,0-1.485-4.44A5.12,5.12,0,0,0,195.96-16.77Zm23.97-4.77a10.792,10.792,0,0,1,5.445,1.4,10.163,10.163,0,0,1,3.855,3.87,11.1,11.1,0,0,1,1.41,5.6,11.091,11.091,0,0,1-1.425,5.61,10.241,10.241,0,0,1-3.87,3.885A10.733,10.733,0,0,1,219.93.21a10.733,10.733,0,0,1-5.415-1.4,10.241,10.241,0,0,1-3.87-3.885,11.091,11.091,0,0,1-1.425-5.61,11.009,11.009,0,0,1,1.425-5.6,10.272,10.272,0,0,1,3.87-3.87A10.734,10.734,0,0,1,219.93-21.54Zm0,4.77a5.143,5.143,0,0,0-4.005,1.635,6.377,6.377,0,0,0-1.485,4.455,6.389,6.389,0,0,0,1.485,4.44,5.12,5.12,0,0,0,4.005,1.65,5.131,5.131,0,0,0,3.99-1.65,6.349,6.349,0,0,0,1.5-4.44,6.389,6.389,0,0,0-1.485-4.44A5.12,5.12,0,0,0,219.93-16.77Zm23.88,5.94L252.36,0h-6.21l-7.2-9.51V0h-5.13V-21.21h5.13v9.33l7.26-9.33h6.15Z" transform="translate(666 1986)" fill="#3953a4"/>
    </g>
  </g>
</svg>
