<?xml version="1.0" encoding="utf-8"?>
<!-- Generator: Adobe Illustrator 19.0.0, SVG Export Plug-In . SVG Version: 6.00 Build 0)  -->
<svg version="1.1" id="Layer_1" xmlns="http://www.w3.org/2000/svg" xmlns:xlink="http://www.w3.org/1999/xlink" x="0px" y="0px"
	 viewBox="0 0 422.6 458.7" style="enable-background:new 0 0 422.6 458.7;" xml:space="preserve">
<g>
	<path d="M81,36.3c0-8.7,0-16.9,0-25c0-6.6,3.6-11,10.1-11.1c15.5-0.3,31-0.2,46.5,0c6.4,0.1,9.4,3.9,9.5,10.4c0,8.3,0,16.6,0,25.3
		c42.7,0,85.1,0,128,0c0-8.2,0-16.4,0-24.5c0-6.7,3.8-11.2,10.6-11.3c15.3-0.2,30.7-0.2,46,0.1c6.5,0.1,9.5,3.8,9.5,10.3
		c0,8.3,0,16.6,0,25.8c2.9,0,5.5-0.1,8,0c11.3,0.5,22.8-0.2,33.8,2c22.2,4.4,40,25.2,39.6,51.7c-1,57.3-0.3,114.6-0.3,172
		c0,15.5-0.2,31,0.1,46.5c0.1,5.3-1.7,9-5.4,12.6c-43.9,43.7-87.8,87.5-131.4,131.6c-4.4,4.4-8.5,6-14.5,6
		c-72.3-0.2-144.6-0.1-217-0.2C22.7,458.5,0,435.6,0,404.2C0,299.5,0,194.9,0,90.3c0-29,23.6-53.2,52.8-53.9
		C61.9,36.2,71.1,36.3,81,36.3z M21.4,151.6c-0.1,1.6-0.2,2.7-0.2,3.9c0,83-0.1,166,0.1,248.9c0,20.9,14.5,35,35.4,35.1
		c69,0,138,0,206.9,0c1.6,0,3.2-0.2,5.3-0.3c0-2,0-3.6,0-5.3c0-24.3,0-48.7,0-73c0-4.5-0.1-9.1,0.7-13.4c4.7-27,25.7-44.3,53.9-44.5
		c25-0.1,50,0,75,0c2.1,0,4.2,0,6.4,0c0-50.9,0-101.1,0-151.4C276.9,151.6,149.5,151.6,21.4,151.6z M102.7,19.5
		c0,18.6,0,36.7,0,54.7c8.6,0,16.8,0,25,0c0-18.4,0-36.5,0-54.7C119.2,19.5,111.1,19.5,102.7,19.5z M296.8,74.2c8.5,0,16.7,0,25,0
		c0-18.4,0-36.4,0-54.6c-8.5,0-16.6,0-25,0C296.8,38,296.8,56,296.8,74.2z"/>
	<path d="M76.9,210.7c0-8.4,0-16.7,0-25c0-6.9,3-10.4,9.8-10.6c13.3-0.3,26.7-0.3,40,0c6.8,0.1,9.8,3.7,9.8,10.6
		c0.1,8.3,0,16.6,0,25.6c9.3,0,18.1,0,26.8,0c10.8,0,13.7,2.9,13.7,13.6c0,10.7,0,21.3,0,32c0,7.6-3.8,11.7-11.5,11.9
		c-7.8,0.2-15.7,0-23.5,0.1c-0.8,0-1.6,0.1-3,0.3c-0.1,2-0.3,4-0.3,5.9c0,7.2,0.1,14.3-0.1,21.5c-0.2,6.7-3.8,10.6-10.1,10.8
		c-13.2,0.3-26.3,0.3-39.5,0c-6.4-0.1-10-4.2-10.1-10.7c-0.1-9,0-18,0-27.8c-3.6,0-6.9,0-10.1,0c-5.7,0-11.3,0.1-17,0
		c-8.3-0.2-11.3-3.4-11.4-11.7c0-10.8-0.1-21.7,0-32.5c0.1-9.1,4.1-13.1,13.1-13.2c7.2-0.1,14.3,0,21.5-0.1
		C75.4,211.2,75.7,211,76.9,210.7z"/>
	<path d="M143.7,352.1c-2.3,0-4.7,0.1-7,0c-6.6-0.3-10.6-4-10.8-10c-0.2-5.8,4.2-11,10.3-11.4c5.5-0.4,11-0.3,16.4,0.1
		c6,0.5,9.5,4.8,9.4,10.8c-0.1,5.8-3.5,9.7-9.4,10.3c-3,0.3-6,0.1-9,0.1C143.7,352,143.7,352,143.7,352.1z"/>
	<path d="M212.9,330.6c2.3,0,4.7-0.1,7,0c6.2,0.4,9.9,3.9,10.3,9.5c0.4,5.7-3,10.8-8.8,11.5c-6.1,0.7-12.3,0.6-18.4,0
		c-5.3-0.5-9.1-5.7-9-10.4c0.1-5.1,4.7-9.9,10.4-10.4C207.3,330.4,210.1,330.6,212.9,330.6C212.9,330.6,212.9,330.6,212.9,330.6z"/>
	<path d="M78,352c-2.7,0-5.3,0.2-8,0c-5.9-0.5-10.4-5.4-10.2-10.9c0.1-5.2,4.6-10.1,10.2-10.4c4.8-0.3,9.6-0.3,14.4,0.1
		c4.8,0.4,9,2.5,10.9,7.5c2.1,5.6-1,12-6.9,13.2c-3.4,0.7-6.9,0.6-10.4,0.8C78.1,352.2,78,352.1,78,352z"/>
	<path d="M349.2,181.4c2.5,0,5-0.1,7.5,0c5.9,0.3,9.8,3.9,10.3,9.5c0.5,5.2-3.6,11-9,11.4c-6.3,0.5-12.6,0.5-18.9,0
		c-5.2-0.4-8.4-4.9-8.2-10.7c0.1-5.7,3.5-9.6,8.9-10.1C342.8,181.2,346,181.4,349.2,181.4C349.2,181.4,349.2,181.4,349.2,181.4z"/>
	<path d="M348.8,230.4c2.7,0,5.3-0.1,8,0c5.8,0.3,9.7,4.1,10.2,9.6c0.4,5.2-3.7,10.9-9.1,11.3c-6.3,0.5-12.6,0.4-18.9,0
		c-5.2-0.4-8.3-4.9-8.1-10.8c0.2-5.6,3.6-9.6,9-10.1C342.8,230.2,345.8,230.5,348.8,230.4C348.8,230.4,348.8,230.4,348.8,230.4z"/>
	<path d="M212,251.6c-2.5,0-5,0.1-7.5,0c-5.6-0.4-10.2-5.1-10.4-10.3c-0.1-5.3,4.6-10.5,10.4-10.8c5.3-0.3,10.7-0.3,16,0
		c5.9,0.3,9.6,4.2,9.8,9.9c0.2,5.5-3.8,10.5-9.3,11.1C218,251.8,215,251.5,212,251.6C212,251.5,212,251.6,212,251.6z"/>
	<path d="M212.7,181.4c2.5,0,5-0.1,7.5,0c6.2,0.3,10,4.1,10.1,10.1c0.1,5.5-4,10.6-9.5,10.9c-5.6,0.4-11.3,0.4-17,0
		c-5.2-0.3-9.7-5.5-9.7-10.4c0-5.1,4.6-10.1,10.1-10.6C207,181.2,209.8,181.4,212.7,181.4z"/>
	<path d="M280.6,181.4c2.5,0,5-0.1,7.5,0c6.1,0.2,10.1,4,10.5,9.7c0.4,5.5-4,10.9-9.7,11.3c-5.8,0.4-11.7,0.6-17.4-0.2
		c-2.3-0.3-5.2-3-6.2-5.2c-1.1-2.7-0.7-6.2-0.3-9.3c0.5-3.9,3.1-6.1,7.1-6.3C275,181.3,277.8,181.4,280.6,181.4
		C280.6,181.4,280.6,181.4,280.6,181.4z"/>
	<path d="M280.7,230.4c2.5,0,5-0.1,7.5,0c6.1,0.3,10.1,4,10.4,9.8c0.3,5.1-3.6,10.6-8.8,11c-6.2,0.5-12.6,0.4-18.9,0
		c-1.7-0.1-3.9-1.6-4.7-3.1c-2.6-4.6-2.6-9.7,0-14.2c1-1.8,3.9-3,6.1-3.5C275,230,277.9,230.4,280.7,230.4
		C280.7,230.4,280.7,230.4,280.7,230.4z"/>
	<path d="M143.7,401c-2.8,0-5.7,0.2-8.5-0.1c-5.5-0.6-9-3.8-9.3-8.2c-0.3-4.6,3.3-9.9,8.3-10.4c6.7-0.7,13.6-0.5,20.4,0
		c4.5,0.4,7.3,4.7,7.4,9.4c0,5-2.9,7.8-7.4,8.7c-3.6,0.7-7.3,0.6-10.9,0.9C143.7,401.3,143.7,401.2,143.7,401z"/>
	<path d="M212.8,382.1c3,0,6-0.3,8.9,0.1c4.7,0.5,7.4,3.4,8.4,8c1,4.8-1.5,8.8-5.5,9.2c-8,1-16.3,0.9-24.4,0.2
		c-3.4-0.3-6.6-3.7-6-8.1c0.7-4.9,3.8-8.2,8.6-9.2c3.2-0.7,6.6-0.5,9.9-0.6C212.8,381.8,212.8,382,212.8,382.1z"/>
	<path d="M77.8,401.4c-3.6-0.3-7.3-0.2-10.9-1c-4.5-1-7.3-3.8-7.1-8.8c0.2-4.7,2.9-8.8,7.5-9.2c6.2-0.5,12.6-0.6,18.9,0
		c5,0.5,10.2,7.2,9.7,11.2c-0.5,4.1-5.2,7.3-11.1,7.5c-2.3,0.1-4.7,0-7,0C77.8,401.2,77.8,401.3,77.8,401.4z"/>
	<path d="M212.1,300.7c-2.3,0-4.7,0.1-7,0c-5.9-0.3-11-5.1-11-10.2c0-4.2,4.9-8.6,10.5-8.9c5.5-0.3,11-0.3,16.4,0.1
		c5.6,0.4,9.2,4.1,9.2,8.6c0,4.8-4,9.5-9.2,10.2c-2.9,0.4-6,0.1-8.9,0.1C212.1,300.6,212.1,300.7,212.1,300.7z"/>
</g>
</svg>
