<?xml version="1.0" encoding="iso-8859-1"?>
<!-- Generator: Adobe Illustrator 21.0.0, SVG Export Plug-In . SVG Version: 6.00 Build 0)  -->
<svg version="1.1" id="Capa_1" xmlns="http://www.w3.org/2000/svg" xmlns:xlink="http://www.w3.org/1999/xlink" x="0px" y="0px"
	 viewBox="0 0 609.69 609.69" style="enable-background:new 0 0 609.69 609.69;" xml:space="preserve">
<g>
	<g>
		<g id="filled_outline_12_">
			<circle style="fill:#FDB62F;" cx="304.839" cy="223.545" r="132.097"/>
			<circle style="fill:#FFA230;" cx="304.839" cy="223.545" r="91.452"/>
			<path style="fill:#FFB782;" d="M545.661,431.943L406.452,497.9h-25.403c19.642,0,35.565-15.923,35.565-35.565
				c0-19.642-15.923-35.565-35.565-35.565H254.032c-42.108-42.098-107.019-51.193-159.065-22.274l-3.516,1.951v193.065h265.87
				c32.181,0,63.793-8.495,91.645-24.611l131.741-76.281c18.067-10.344,24.326-33.37,13.982-51.436
				C584.874,430.033,563.474,423.377,545.661,431.943z"/>
			<rect y="406.449" style="fill:#4398D1;" width="91.452" height="193.065"/>
			<path style="fill:#FD7B2F;" d="M223.548,223.545h-20.323c0.061-56.09,45.523-101.552,101.613-101.613v20.323
				C259.966,142.306,223.599,178.663,223.548,223.545z"/>
			<path style="fill:#FD7B2F;" d="M304.839,325.158v-20.323c44.872-0.051,81.24-36.418,81.29-81.29h20.323
				C406.391,279.636,360.929,325.097,304.839,325.158z"/>
			<path style="fill:#FDB62F;" d="M142.258,91.449L142.258,91.449c-3.475-20.841-19.804-37.17-40.645-40.645l0,0
				c20.841-3.475,37.17-19.804,40.645-40.645l0,0c3.475,20.841,19.804,37.17,40.645,40.645l0,0
				C162.062,54.279,145.733,70.608,142.258,91.449z"/>
			<circle style="fill:#126099;" cx="30.484" cy="538.545" r="20.323"/>
			<path style="fill:#FDB62F;" d="M508.065,345.481L508.065,345.481c-3.475-20.841-19.804-37.17-40.645-40.645l0,0
				c20.841-3.475,37.17-19.804,40.645-40.645l0,0c3.475,20.841,19.804,37.17,40.645,40.645l0,0
				C527.869,308.311,511.54,324.64,508.065,345.481z"/>
			<path style="fill:#FD7B2F;" d="M315,213.384h-20.323c-5.609,0-10.161-4.552-10.161-10.161c0-5.609,4.552-10.161,10.161-10.161
				h40.645v-20.323H315v-10.161h-20.323v10.161c-16.837,0-30.484,13.647-30.484,30.484s13.647,30.484,30.484,30.484H315
				c5.609,0,10.161,4.552,10.161,10.161c0,5.609-4.552,10.161-10.161,10.161h-40.645v20.323h20.323v10.161H315v-10.161
				c16.837,0,30.484-13.647,30.484-30.484S331.837,213.384,315,213.384z"/>
			<path style="fill:#F2A46F;" d="M381.048,508.062H254.032c-5.609,0-10.161-4.552-10.161-10.161
				c0-5.609,4.552-10.161,10.161-10.161h127.016c5.609,0,10.161,4.552,10.161,10.161
				C391.21,503.509,386.657,508.062,381.048,508.062z"/>
			<path d="M304.839,365.803c78.567,0,142.258-63.691,142.258-142.258S383.406,81.287,304.839,81.287
				s-142.258,63.691-142.258,142.258C162.662,302.072,226.302,365.712,304.839,365.803z M304.839,101.61
				c67.339,0,121.935,54.597,121.935,121.935s-54.597,121.935-121.935,121.935s-121.935-54.597-121.935-121.935
				C182.974,156.227,237.53,101.681,304.839,101.61z"/>
			<path d="M587.414,425.572c-13.85-8.81-31.256-9.877-46.071-2.815l-117.485,55.653c8.881-23.645-3.089-50.004-26.734-58.885
				c-5.142-1.931-10.588-2.916-16.075-2.916H258.148c-45.584-42.657-113.43-51.132-168.108-21.003l-1.219,0.681H0v20.323h81.29
				v172.742H0v20.323h357.322c33.969-0.01,67.329-8.972,96.736-25.982l131.741-76.271c22.873-13.24,30.687-42.515,17.447-65.378
				C599.374,435.347,593.938,429.698,587.414,425.572z M575.617,489.832l-131.741,76.271
				c-26.308,15.222-56.161,23.239-86.554,23.249H101.613V412.444c47.9-25.424,106.765-16.705,145.235,21.511
				c1.9,1.9,4.491,2.977,7.184,2.977h127.016c14.033,0,25.403,11.37,25.403,25.403s-11.37,25.403-25.403,25.403H254.032
				c-5.609,0-10.161,4.552-10.161,10.161c0,5.609,4.552,10.161,10.161,10.161h152.419c1.504-0.01,2.987-0.366,4.349-1.016
				l139.21-65.957c13.728-6.524,30.149-0.691,36.682,13.047c6.158,12.966,1.331,28.482-11.106,35.656L575.617,489.832z"/>
			<path d="M223.548,223.545c0.051-44.872,36.418-81.24,81.29-81.29v-20.323c-56.09,0.061-101.552,45.523-101.613,101.613H223.548z"
				/>
			<path d="M304.839,325.158c56.09-0.061,101.552-45.523,101.613-101.613h-20.323c-0.051,44.872-36.418,81.24-81.29,81.29V325.158z"
				/>
			<path d="M99.946,60.822c16.563,2.764,29.529,15.74,32.293,32.303c0.935,5.538,6.178,9.257,11.716,8.322
				c4.268-0.721,7.601-4.065,8.322-8.322c2.764-16.563,15.73-29.539,32.293-32.303c5.538-0.935,9.257-6.178,8.322-11.716
				c-0.721-4.268-4.065-7.601-8.322-8.322c-16.563-2.764-29.529-15.74-32.293-32.303c-0.935-5.538-6.178-9.257-11.716-8.322
				c-4.268,0.721-7.601,4.065-8.322,8.322c-2.764,16.563-15.73,29.539-32.293,32.303c-5.538,0.935-9.257,6.178-8.322,11.706
				C92.346,56.758,95.679,60.101,99.946,60.822z M142.258,36.293c3.963,5.64,8.871,10.547,14.51,14.51
				c-5.64,3.963-10.547,8.871-14.51,14.51c-3.963-5.64-8.871-10.547-14.51-14.51C133.387,46.841,138.295,41.933,142.258,36.293z"/>
			<path d="M60.968,538.545c0-16.837-13.647-30.484-30.484-30.484S0,521.708,0,538.545c0,16.837,13.647,30.484,30.484,30.484
				S60.968,555.383,60.968,538.545L60.968,538.545z M20.323,538.545c0-5.609,4.552-10.161,10.161-10.161s10.161,4.552,10.161,10.161
				c0,5.609-4.552,10.161-10.161,10.161S20.323,544.154,20.323,538.545z"/>
			<path d="M465.753,314.855c16.563,2.764,29.529,15.74,32.293,32.303c0.935,5.538,6.178,9.257,11.716,8.322
				c4.268-0.721,7.601-4.065,8.322-8.322c2.764-16.563,15.73-29.539,32.293-32.303c5.538-0.935,9.257-6.178,8.322-11.716
				c-0.721-4.268-4.065-7.601-8.322-8.322c-16.563-2.764-29.529-15.74-32.293-32.303c-0.935-5.538-6.178-9.257-11.716-8.322
				c-4.268,0.721-7.601,4.065-8.322,8.322c-2.764,16.563-15.73,29.539-32.293,32.303c-5.538,0.935-9.257,6.178-8.322,11.716
				C458.152,310.79,461.485,314.133,465.753,314.855z M508.065,290.325c3.963,5.64,8.871,10.547,14.51,14.51
				c-5.639,3.963-10.547,8.871-14.51,14.51c-3.963-5.639-8.871-10.547-14.51-14.51C499.194,300.873,504.102,295.965,508.065,290.325
				z"/>
			<path d="M294.677,172.739c-16.837,0-30.484,13.647-30.484,30.484s13.647,30.484,30.484,30.484H315
				c5.609,0,10.161,4.552,10.161,10.161c0,5.609-4.552,10.161-10.161,10.161h-40.645v20.323h20.323v10.161H315v-10.161
				c16.837,0,30.484-13.647,30.484-30.484S331.837,213.384,315,213.384h-20.323c-5.609,0-10.161-4.552-10.161-10.161
				c0-5.609,4.552-10.161,10.161-10.161h40.645v-20.323H315v-10.161h-20.323V172.739z"/>
		</g>
	</g>
</g>
<g>
</g>
<g>
</g>
<g>
</g>
<g>
</g>
<g>
</g>
<g>
</g>
<g>
</g>
<g>
</g>
<g>
</g>
<g>
</g>
<g>
</g>
<g>
</g>
<g>
</g>
<g>
</g>
<g>
</g>
</svg>
