<svg height="413pt" viewBox="-6 0 413 413.1" width="413pt" xmlns="http://www.w3.org/2000/svg"><path d="m43.824219 379.101562h314v34h-314zm0 0"/><path d="m.0507812 179.101562h35.4999998c4.417969 0 8.273438 3.242188 8.273438 7.660157v176.339843h314v-176.339843c0-4.417969 3.855469-7.660157 8.273437-7.660157h35.5l-200.773437-179.101562zm230.7734378-31.714843v43.714843h43.164062c4.417969 0 7.835938 2.847657 7.835938 7.265626v44.363281c0 4.417969-3.417969 8.371093-7.835938 8.371093h-43.164062v42.613282c0 4.417968-3.402344 8.386718-7.816407 8.386718h-44.367187c-4.417969 0-7.816406-3.96875-7.816406-8.386718v-42.613282h-43.167969c-4.417969 0-7.832031-3.953124-7.832031-8.371093v-44.363281c0-4.417969 3.414062-7.265626 7.832031-7.265626h43.167969v-43.714843c0-4.417969 3.398437-7.285157 7.816406-7.285157h44.367187c4.414063 0 7.816407 2.867188 7.816407 7.285157zm0 0"/><path d="m135.824219 207.101562v28h42.816406c4.417969 0 8.183594 3.210938 8.183594 7.628907v43.371093h28v-43.371093c0-4.417969 3.765625-7.628907 8.183593-7.628907h42.816407v-28h-42.816407c-4.417968 0-8.183593-4.316406-8.183593-8.734374v-42.265626h-28v42.265626c0 4.417968-3.765625 8.734374-8.183594 8.734374zm0 0"/></svg>