<?xml version="1.0" encoding="utf-8"?>
<!-- Generator: Adobe Illustrator 19.0.0, SVG Export Plug-In . SVG Version: 6.00 Build 0)  -->
<svg version="1.1" id="Layer_1" xmlns="http://www.w3.org/2000/svg" xmlns:xlink="http://www.w3.org/1999/xlink" x="0px" y="0px"
	 viewBox="0 0 512 511.3" style="enable-background:new 0 0 512 511.3;" xml:space="preserve">
<style type="text/css">
	.st0{fill:#FFFFFF;}
</style>
<g>
	<path class="st0" d="M320.3,148.7c0,64.1,0,127.7,0,191.5c14.2,0,28,0,42.1,0c0-64,0-127.6,0-191.5
		C348.1,148.7,334.4,148.7,320.3,148.7z M298.3,340.3c0-50,0-99.4,0-148.7c-14.3,0-28.2,0-42,0c0,49.8,0,99.2,0,148.7
		C270.5,340.3,284.3,340.3,298.3,340.3z M234.5,234.4c-14.4,0-28.3,0-42.2,0c0,35.5,0,70.5,0,105.8c14.2,0,28,0,42.2,0
		C234.5,304.9,234.5,269.8,234.5,234.4z M128.2,276.7c0,21.4,0,42.4,0,63.5c14.1,0,28,0,42.1,0c0-21.3,0-42.3,0-63.5
		C156.2,276.7,142.4,276.7,128.2,276.7z"/>
	<path d="M512,271.3c-1.3,9.7-2.4,19.5-4.1,29.1c-4.8,27.4-14.1,53.3-27.5,77.8c-0.4,0.7-0.9,1.4-1.6,2.5
		c-18.4-10.6-36.6-21.1-54.4-31.4c5-12.6,10.7-24.5,14.6-36.9C474,202.2,402.6,85.6,288.6,66.2c-11.4-1.9-11.4-1.9-11.4-13.3
		c0-15.5,0-31,0-46.5c0-1.8,0-3.6,0-6.4c10.2,1.6,20,2.4,29.4,4.6c98,22.7,163,81.9,194.5,177.5c5.7,17.3,8.7,35.2,9.9,53.4
		c0.1,1.6,0.6,3.2,0.9,4.8C512,250.6,512,260.9,512,271.3z"/>
	<path d="M0,240.3c1.3-9.7,2.3-19.4,4-29.1C13.5,156.7,38.3,110.1,78,71.5c37-35.9,81.1-58.3,131.7-67.9c8-1.5,16.1-2.3,24.7-3.5
		c0.2,1.9,0.4,3.3,0.4,4.7c0,18.3-0.1,36.7,0.1,55c0.1,4.1-1.5,5-5.1,5.4C149.9,74.4,79.3,142.6,66.8,222
		c-6.9,43.8-0.6,85.2,20.3,124.3c0.3,0.6,0.5,1.2,0.8,1.8c0.1,0.1,0,0.3,0,0.8c-18,10.4-36.1,20.9-54.6,31.5
		c-0.8-1.2-1.6-2.2-2.2-3.3C14,345.6,3.7,312,0.9,276.1c-0.1-1.6-0.6-3.2-0.9-4.8C0,260.9,0,250.6,0,240.3z"/>
	<path d="M240,511.3c-9.7-1.3-19.5-2.3-29.1-4.1c-61.3-11.3-111.8-41.2-152-88.7c-0.3-0.4-0.6-0.8-0.9-1.2c-0.2-0.3-0.2-0.6-0.4-1.5
		c18.4-10.6,36.9-21.3,55.8-32.2c38.7,41.1,86,63.5,142.6,63.5c56.5,0,103.6-22.2,142.7-63.5c18.6,10.7,37.2,21.5,56.4,32.6
		c-3.3,3.9-6.1,7.3-9.1,10.6c-44.5,48.3-99.3,76.1-164.6,83.3c-3.1,0.3-6.2,0.8-9.3,1.2C261.3,511.3,250.7,511.3,240,511.3z"/>
	<path d="M320.3,148.7c14.1,0,27.9,0,42.1,0c0,63.8,0,127.5,0,191.5c-14,0-27.9,0-42.1,0C320.3,276.5,320.3,212.9,320.3,148.7z"/>
	<path d="M298.3,340.3c-14.1,0-27.8,0-42,0c0-49.5,0-98.9,0-148.7c13.8,0,27.7,0,42,0C298.3,240.9,298.3,290.3,298.3,340.3z"/>
	<path d="M234.5,234.4c0,35.4,0,70.5,0,105.8c-14.2,0-28.1,0-42.2,0c0-35.3,0-70.4,0-105.8C206.2,234.4,220,234.4,234.5,234.4z"/>
	<path d="M128.2,276.7c14.2,0,27.9,0,42.1,0c0,21.2,0,42.2,0,63.5c-14.1,0-28,0-42.1,0C128.2,319.1,128.2,298.2,128.2,276.7z"/>
</g>
</svg>
