<svg viewBox="0 -100 512 512" xmlns="http://www.w3.org/2000/svg"><g fill-rule="evenodd"><path d="m461.765625 258.917969c27.238281 0 46.285156-24.875 37.828125-51.421875l-17.601562-55.25-8.71875-27.359375c-6.863282-21.542969-18.503907-41.117188-41.113282-41.117188h-51.394531v-32.273437c0-22.609375-18.5-41.113282-41.113281-41.113282h-252.648438c-22.609375 0-41.113281 18.5-41.113281 41.113282v166.304687c0 22.613281 18.503906 41.113281 41.113281 41.113281 124.921875.003907 249.839844.003907 374.761719.003907zm0 0" fill="#ffe169"/><path d="m199.542969 258.917969c0 23.5-19.050781 42.550781-42.550781 42.550781-23.503907 0-42.554688-19.050781-42.554688-42.550781s19.050781-42.554688 42.554688-42.554688c23.5 0 42.550781 19.054688 42.550781 42.554688zm0 0" fill="#68b3de"/><path d="m423.316406 258.917969c0 23.5-19.050781 42.550781-42.550781 42.550781s-42.550781-19.050781-42.550781-42.550781 19.050781-42.554688 42.550781-42.554688 42.550781 19.054688 42.550781 42.554688zm0 0" fill="#68b3de"/><path d="m380.765625 205.984375c14.617187 0 27.847656 5.925781 37.429687 15.503906 7.25 7.25 12.40625 16.597657 14.484376 27.046875h29.085937c3.535156 0 6.789063-.503906 9.707031-1.433594 5.90625-1.878906 10.867188-5.496093 14.351563-10.199218 3.4375-4.640625 5.414062-10.402344 5.414062-16.65625 0-3.1875-.476562-6.425782-1.496093-9.628906l-15.292969-47.988282h-57.082031c-5.730469 0-10.378907-4.648437-10.378907-10.382812 0-5.730469 4.648438-10.378906 10.378907-10.378906h50.46875l-4.414063-13.859376c-3.046875-9.566406-7.0625-18.585937-12.625-24.984374-4.6875-5.394532-10.726563-8.871094-18.636719-8.871094h-41.011718v86.398437c0 5.734375-4.648438 10.382813-10.378907 10.382813-5.734375 0-10.382812-4.648438-10.382812-10.382813v-129.054687c0-8.441406-3.460938-16.125-9.035157-21.699219-5.574218-5.574219-13.257812-9.035156-21.699218-9.035156h-252.648438c-8.4375 0-16.121094 3.460937-21.695312 9.035156-5.574219 5.574219-9.035156 13.257813-9.035156 21.699219v4.054687h102.765624c5.730469 0 10.378907 4.644531 10.378907 10.378907 0 5.730468-4.648438 10.378906-10.378907 10.378906h-102.769531v82.957031h102.765625c5.734375 0 10.382813 4.648437 10.382813 10.378906 0 5.734375-4.648438 10.382813-10.382813 10.382813h-102.765625v37.777344c0 8.4375 3.460938 16.121093 9.039063 21.695312 5.574218 5.574219 13.253906 9.035156 21.695312 9.035156h17.980469c2.078125-10.449218 7.234375-19.796875 14.484375-27.046875 9.578125-9.578125 22.8125-15.503906 37.429688-15.503906 14.613281 0 27.847656 5.925781 37.425781 15.503906 7.25 7.25 12.40625 16.597657 14.484375 27.046875h120.042968c2.078126-10.449218 7.234376-19.796875 14.484376-27.046875 9.582031-9.578125 22.8125-15.503906 37.429687-15.503906zm-181.347656-46.339844c5.523437 0 10 4.476563 10 10 0 5.523438-4.476563 10-10 10-5.523438 0-10-4.476562-10-10 0-5.523437 4.476562-10 10-10zm0-103.714843c5.523437 0 10 4.476562 10 10 0 5.519531-4.476563 10-10 10-5.523438 0-10-4.480469-10-10 0-5.523438 4.476562-10 10-10zm-189.039063 20.378906c-5.730468 0-10.378906-4.648438-10.378906-10.378906 0-5.734376 4.648438-10.382813 10.378906-10.382813h25.132813v-4.054687c0-14.167969 5.789062-27.046876 15.117187-36.375 9.328125-9.328126 22.207032-15.117188 36.375-15.117188h252.648438c14.171875 0 27.046875 5.789062 36.375 15.117188 9.328125 9.332031 15.121094 22.207031 15.121094 36.375v21.898437h41.011718c14.699219 0 25.785156 6.308594 34.285156 16.085937 7.625 8.773438 12.867188 20.3125 16.679688 32.285157 8.773438 27.539062 17.546875 55.074219 26.320312 82.609375 1.738282 5.457031 2.554688 10.785156 2.554688 15.875 0 10.769531-3.492188 20.800781-9.550781 28.980468-6.007813 8.109376-14.558594 14.339844-24.730469 17.582032-5.066406 1.613281-10.425781 2.488281-15.953125 2.488281h-29.085937c-2.078126 10.449219-7.234376 19.796875-14.484376 27.046875-9.582031 9.578125-22.8125 15.503906-37.429687 15.503906-14.613281 0-27.847656-5.925781-37.425781-15.503906-7.25-7.25-12.40625-16.597656-14.488282-27.046875h-120.039062c-2.078125 10.449219-7.238281 19.796875-14.488281 27.046875-9.578125 9.578125-22.8125 15.503906-37.425781 15.503906-14.617188 0-27.847657-5.925781-37.429688-15.503906-7.25-7.25-12.40625-16.597656-14.484375-27.046875h-17.980469c-14.167968 0-27.046875-5.792969-36.375-15.121094s-15.117187-22.203125-15.117187-36.375v-37.777343h-25.132813c-5.730468 0-10.378906-4.644532-10.378906-10.378907 0-5.730469 4.648438-10.378906 10.378906-10.378906h25.132813v-82.957031zm80.078125 51.855468c-5.730469 0-10.378906-4.648437-10.378906-10.378906 0-5.734375 4.644531-10.382812 10.378906-10.382812h148.65625c5.734375 0 10.382813 4.648437 10.382813 10.382812 0 5.730469-4.648438 10.378906-10.382813 10.378906zm358.707031 104.101563c-5.730468 0-10.378906-4.648437-10.378906-10.382813 0-5.730468 4.648438-10.378906 10.378906-10.378906h16.371094c5.730469 0 10.378906 4.648438 10.378906 10.378906 0 5.734376-4.648437 10.382813-10.378906 10.382813zm-68.488281 37.03125c-5.734375 0-10.382812-4.648437-10.382812-10.382813 0-5.730468 4.648437-10.378906 10.382812-10.378906 5.785157 0 10.472657 4.570313 10.472657 10.378906 0 5.8125-4.6875 10.382813-10.472657 10.382813zm-223.777343 0c-5.734376 0-10.378907-4.648437-10.378907-10.382813 0-5.730468 4.644531-10.378906 10.378907-10.378906 5.785156 0 10.472656 4.570313 10.472656 10.378906 0 5.8125-4.6875 10.382813-10.472656 10.382813zm22.75-33.128906c5.820312 5.820312 9.421874 13.863281 9.421874 22.75s-3.601562 16.929687-9.421874 22.75c-5.820313 5.820312-13.867188 9.421875-22.75 9.421875-8.886719 0-16.929688-3.601563-22.75-9.421875-5.820313-5.820313-9.421876-13.863281-9.421876-22.75s3.601563-16.929688 9.421876-22.75c5.820312-5.820313 13.863281-9.421875 22.75-9.421875 8.882812 0 16.929687 3.601562 22.75 9.421875zm223.867187 0c5.820313 5.820312 9.421875 13.863281 9.421875 22.75s-3.601562 16.929687-9.421875 22.75c-5.820313 5.820312-13.863281 9.421875-22.75 9.421875-8.882813 0-16.925781-3.601563-22.75-9.421875-5.820313-5.820313-9.421875-13.863281-9.421875-22.75s3.601562-16.929688 9.421875-22.75c5.824219-5.820313 13.867187-9.421875 22.75-9.421875 8.886719 0 16.929687 3.601562 22.75 9.421875zm0 0"/></g></svg>