<svg height="512pt" viewBox="0 -36 512.001 512" width="512pt" xmlns="http://www.w3.org/2000/svg"><path d="m8.785156 336.820312 115.558594-115.558593c2.980469-2.980469 6.941406-4.621094 11.15625-4.621094 4.21875 0 8.183594 1.644531 11.164062 4.628906l85.238282 85.234375 133.441406-133.441406c6.148438-6.148438 16.152344-6.152344 22.304688-.011719l115.566406 115.566407h8.785156v-269.921876c0-10.308593-8.386719-18.695312-18.695312-18.695312h-474.609376c-10.308593 0-18.695312 8.386719-18.695312 18.695312v318.125zm223.113282-241.003906c28.203124 0 51.152343 22.949219 51.152343 51.152344s-22.949219 51.148438-51.152343 51.148438c-28.203126 0-51.148438-22.945313-51.148438-51.148438s22.945312-51.152344 51.148438-51.152344zm0 0"/><path d="m231.898438 168.117188c11.664062 0 21.152343-9.488282 21.152343-21.148438 0-11.664062-9.488281-21.152344-21.152343-21.152344-11.660157 0-21.148438 9.488282-21.148438 21.152344 0 11.660156 9.488281 21.148438 21.148438 21.148438zm0 0"/><path d="m497 318.617188c-4.140625 0-7.894531-1.679688-10.609375-4.394532l-109.890625-109.894531-133.445312 133.445313c-2.980469 2.980468-6.941407 4.621093-11.15625 4.621093-4.21875 0-8.183594-1.644531-11.164063-4.628906l-85.234375-85.234375-109.890625 109.890625c-2.714844 2.714844-6.46875 4.394531-10.609375 4.394531h-15v53.605469c0 10.308594 8.386719 18.695313 18.695312 18.695313h474.609376c10.308593 0 18.695312-8.386719 18.695312-18.695313v-101.804687zm0 0"/></svg>