<svg height="511pt" viewBox="0 -36 511.99853 511" width="511pt" xmlns="http://www.w3.org/2000/svg"><path d="m359.785156 27.335938c-3.628906-13.566407-17.582031-21.613282-31.136718-17.949219l-181.910157 49.210937 16.980469 147.203125 21.589844-2.726562h116.535156l89.933594-55.859375zm0 0" fill="#fedd60"/><path d="m428.8125 285.933594-110.925781 55.066406-95.542969.792969-58.199219-132.296875-.425781-3.695313 21.589844-2.726562 206.472656-55.859375zm0 0" fill="#fecc2e"/><path d="m205.238281 395.632812c-4.203125 0-8.367187-1.097656-12.074219-3.230468-5.566406-3.207032-9.625-8.5-11.28125-14.710938l-81.851562-306.625c-1.375-5.152344-4.683594-9.449218-9.3125-12.097656s-10.007812-3.324219-15.148438-1.898438l-37.441406 10.375c-12.871094 3.5625-26.1875-3.972656-29.753906-16.839843-3.5625-12.867188 3.976562-26.1875 16.839844-29.75l37.445312-10.378907c17.667969-4.894531 36.160156-2.574218 52.074219 6.53125 15.910156 9.105469 27.277344 23.878907 32.007813 41.59375l75.59375 283.1875 206.480468-55.859374c8.628906-2.34375 16.191406-7.710938 21.261719-15.113282l10.316406-15.042968c7.550781-11.007813 22.597657-13.816407 33.609375-6.265626 11.007813 7.550782 13.8125 22.597657 6.265625 33.609376l-10.316406 15.042968c-11.554687 16.847656-28.773437 29.078125-48.488281 34.433594l-229.914063 62.199219c-2.078125.5625-4.199219.839843-6.3125.839843zm0 0" fill="#4f648f"/><path d="m265.671875 371.457031c0 33.378907-27.058594 60.433594-60.433594 60.433594-33.378906 0-60.433593-27.054687-60.433593-60.433594 0-33.375 27.054687-60.433593 60.433593-60.433593 33.375 0 60.433594 27.058593 60.433594 60.433593zm0 0" fill="#41476b"/><path d="m229.496094 371.457031c0 13.398438-10.859375 24.261719-24.257813 24.261719-13.398437 0-24.261719-10.863281-24.261719-24.261719 0-13.398437 10.863282-24.257812 24.261719-24.257812 13.398438 0 24.257813 10.859375 24.257813 24.257812zm0 0" fill="#4f648f"/><path d="m197.371094 112.707031c.816406 3.453125 3.894531 5.78125 7.292968 5.78125.570313 0 1.148438-.0625 1.730469-.199219 4.03125-.953124 6.527344-4.992187 5.578125-9.023437l-2.660156-11.28125c-.949219-4.03125-4.988281-6.53125-9.019531-5.578125-4.035157.949219-6.53125 4.988281-5.582031 9.023438zm0 0"/><path d="m322.039062 83.328125c.8125 3.453125 3.890626 5.78125 7.292969 5.78125.570313 0 1.148438-.066406 1.726563-.203125 4.03125-.949219 6.527344-4.988281 5.578125-9.019531l-2.660157-11.28125c-.949218-4.03125-4.988281-6.53125-9.019531-5.578125-4.03125.949218-6.53125 4.988281-5.578125 9.019531zm0 0"/><path d="m247.070312 105.238281c4.746094 3.394531 10.457032 5.167969 16.320313 5.167969 2.246094 0 4.511719-.257812 6.753906-.789062 8.101563-1.910157 14.914063-7.09375 18.6875-14.222657 1.9375-3.660156.542969-8.199219-3.121093-10.136719-3.660157-1.9375-8.199219-.542968-10.136719 3.121094-1.75 3.304688-4.980469 5.722656-8.871094 6.640625-3.890625.914063-7.863281.195313-10.90625-1.980469-3.367187-2.410156-8.050781-1.632812-10.460937 1.734376-2.410157 3.371093-1.632813 8.054687 1.734374 10.464843zm0 0"/><path d="m205.242188 339.667969c-17.511719 0-31.761719 14.25-31.761719 31.761719 0 17.511718 14.25 31.757812 31.761719 31.757812 17.511718 0 31.761718-14.246094 31.761718-31.757812 0-17.511719-14.25-31.761719-31.761718-31.761719zm0 48.523437c-9.242188 0-16.757813-7.519531-16.757813-16.761718 0-9.242188 7.515625-16.757813 16.757813-16.757813 9.242187 0 16.757812 7.515625 16.757812 16.757813 0 9.242187-7.515625 16.761718-16.757812 16.761718zm0 0"/><path d="m342.667969 235.589844 6.214843-1.625c1.445313-.375 2.917969.488281 3.296876 1.929687l10.921874 41.804688c.375 1.441406 1.851563 2.308593 3.292969 1.929687l17.570313-4.589844c1.441406-.375 2.304687-1.851562 1.929687-3.292968l-10.921875-41.804688c-.378906-1.441406.488282-2.917968 1.929688-3.292968l6.21875-1.625c2.175781-.570313 2.742187-3.394532.957031-4.757813l-26.996094-20.628906c-1.398437-1.070313-3.425781-.539063-4.121093 1.074219l-13.453126 31.199218c-.894531 2.066406.984376 4.25 3.160157 3.679688zm0 0"/><path d="m40.136719 74.644531s37.390625-10.363281 37.441406-10.375c6.535156-1.8125 13.46875 2.175781 15.210937 8.707031l66.363282 248.605469c-13.421875 12.417969-21.84375 30.164063-21.84375 49.847657 0 37.460937 30.472656 67.933593 67.933594 67.933593 32.34375 0 59.464843-22.730469 66.269531-53.050781l110.859375-29.988281c3.996094-1.082031 6.359375-5.199219 5.277344-9.199219-1.082032-3.996094-5.195313-6.363281-9.195313-5.28125l-105.285156 28.484375c-.0625-3.660156-.40625-7.339844-1.082031-10.9375-1.335938-7.441406-3.941407-14.65625-7.640626-21.246094l166.339844-45.003906c10.355469-2.8125 19.40625-9.246094 25.484375-18.109375l10.3125-15.042969c5.203125-7.582031 15.601563-9.519531 23.183594-4.320312s9.519531 15.597656 4.320313 23.179687l-10.316407 15.042969c-10.546875 15.382813-26.269531 26.546875-44.257812 31.433594l-33.476563 9.058593c-4 1.082032-6.363281 5.199219-5.28125 9.195313 1.082032 4 5.195313 6.363281 9.195313 5.28125l33.484375-9.058594c21.429687-5.820312 40.148437-19.113281 52.707031-37.429687l10.316406-15.042969c9.878907-14.402344 6.195313-34.15625-8.207031-44.03125-14.402344-9.878906-34.160156-6.195313-44.039062 8.207031l-10.3125 15.042969c-2.617188 3.816406-6.0625 6.957031-10.027344 9.210937 0 0-66.808594-250.28125-66.839844-250.390624-4.628906-17.347657-23-27.9375-40.339844-23.25l-174.996094 47.339843c-6.167968-16.464843-17.765624-30.136719-33.230468-38.988281-17.4375-9.976562-38.453125-12.609375-57.804688-7.246094l-37.441406 10.375c-16.828125 4.664063-26.726562 22.152344-22.066406 38.980469 4.5625 16.46875 22.515625 26.625 38.984375 22.066406zm217.929687 299.152344c-1.515625 27.109375-24.785156 50.566406-52.824218 50.566406-29.1875 0-52.933594-23.746093-52.933594-52.933593 0-25.703126 19.4375-48.398438 44.839844-52.316407.039062-.003906.078124-.011719.117187-.015625 31.835937-4.65625 62.609375 22.292969 60.800781 54.699219zm72.542969-357.199219c9.4375-2.550781 19.414063 3.222656 21.933594 12.640625l30.066406 112.660157-136.855469 37.027343c-4 1.082031-6.363281 5.199219-5.28125 9.195313 1.082032 4 5.195313 6.363281 9.195313 5.28125l136.8125-37.011719 33.164062 124.222656-164.671875 44.546875c-8.851562-9.523437-20.152344-16.257812-32.648437-19.488281-.660157-.171875-1.320313-.339844-1.980469-.492187l-25.855469-96.847657 26.207031-7.089843c4-1.082032 6.363282-5.199219 5.28125-9.199219-1.050781-3.882813-5.230468-6.355469-9.199218-5.28125l-26.15625 7.078125-34.703125-129.984375s174.371093-47.167969 174.691406-47.257813zm-315 31.976563c-2.457031-8.859375 2.753906-18.066407 11.613281-20.519531l37.441406-10.378907c15.550782-4.308593 32.339844-2.203125 46.347657 5.8125 14.160156 8.105469 24.277343 21.253907 28.488281 37.015625l64.867188 242.996094c-.941407.011719-1.878907.050781-2.820313.101562-10.4375.550782-20.40625 3.433594-29.402344 8.488282 0 0-64.808593-242.777344-64.863281-242.984375-3.859375-14.464844-19.25-23.300781-33.710938-19.292969l-37.4375 10.375c-8.746093 2.421875-18.097656-2.855469-20.523437-11.613281zm0 0"/></svg>