<svg height="511pt" viewBox="1 -7 511.99998 511" width="511pt" xmlns="http://www.w3.org/2000/svg"><path d="m464 64.5h-199.441406c-.640625-.96875-1.386719-1.863281-2.222656-2.671875l-54.589844-52.382813c-5.9375-5.75-13.882813-8.957031-22.144532-8.945312h-137.601562c-26.511719 0-48 21.492188-48 48v288c0 26.511719 21.488281 48 48 48h144c8.835938 0 16-7.164062 16-16s-7.164062-16-16-16h-144c-8.835938 0-16-7.164062-16-16v-288c0-8.835938 7.164062-16 16-16h137.601562l53.550782 51.410156c6.046875 7.921875 15.4375 12.578125 25.40625 12.589844h199.441406c8.835938 0 16 7.164062 16 16v224c0 8.835938-7.164062 16-16 16h-144c-8.835938 0-16 7.164062-16 16s7.164062 16 16 16h144c26.511719 0 48-21.488281 48-48v-224c0-26.507812-21.492188-48-48-48zm0 0"/><path d="m312.558594 319.699219c6.140625 6.355469 16.269531 6.53125 22.625.394531 6.355468-6.140625 6.53125-16.269531.394531-22.625-.128906-.132812-.261719-.261719-.394531-.390625l-67.871094-67.890625c-6.25-6.246094-16.375-6.246094-22.625 0l-67.886719 67.890625c-6.355469 6.136719-6.53125 16.265625-.394531 22.621094 6.140625 6.355469 16.269531 6.53125 22.625.394531.132812-.128906.261719-.261719.390625-.394531l40.578125-40.574219v201.375c0 8.835938 7.164062 16 16 16s16-7.164062 16-16v-201.375zm0 0"/></svg>