<svg height="433pt" viewBox="-58 0 433 433.9" width="433pt" xmlns="http://www.w3.org/2000/svg"><path d="m158.449219 190c-45.839844 0-83 37.160156-83 83s37.160156 83 83 83c45.839843 0 83-37.160156 83-83-.027344-45.828125-37.171875-82.972656-83-83zm52.800781 62.199219-59.800781 57.101562c-1.296875 1.222657-3.015625 1.902344-4.800781 1.898438-1.855469-.011719-3.644532-.726563-5-2l-33.898438-33.898438c-2.734375-2.734375-2.734375-7.167969 0-9.902343 2.734375-2.730469 7.167969-2.730469 9.898438 0l29.101562 29.101562 54.898438-52.398438c1.335937-1.296874 3.132812-2 4.992187-1.964843 1.859375.039062 3.628906.816406 4.910156 2.164062 2.515625 2.867188 2.382813 7.191407-.300781 9.898438zm0 0"/><path d="m309.550781 112.101562h-64.699219v-28.300781c0-46.28125-37.519531-83.800781-83.800781-83.800781s-83.800781 37.519531-83.800781 83.800781v28.300781h-69.800781c-1.859375-.011718-3.644531.71875-4.960938 2.035157-1.316406 1.316406-2.050781 3.101562-2.039062 4.964843v267.796876c.042969 25.941406 21.058593 46.960937 47 47h222.199219c25.941406-.039063 46.960937-21.058594 47-47v-267.796876c-.058594-3.882812-3.21875-7-7.097657-7zm-218.402343-28.402343c0-38.546875 31.253906-69.800781 69.800781-69.800781 38.550781 0 69.800781 31.253906 69.800781 69.800781v28.300781h-139.601562zm67.300781 286.300781c-53.570313 0-97-43.429688-97-97s43.429687-97 97-97c53.574219 0 97 43.429688 97 97-.050781 53.550781-43.449219 96.949219-97 97zm0 0"/></svg>