<?xml version="1.0" encoding="utf-8"?>
<!-- Generator: Adobe Illustrator 19.0.0, SVG Export Plug-In . SVG Version: 6.00 Build 0)  -->
<svg version="1.1" id="Layer_1" xmlns="http://www.w3.org/2000/svg" xmlns:xlink="http://www.w3.org/1999/xlink" x="0px" y="0px"
	 viewBox="-49 141 450 512" style="enable-background:new -49 141 450 512;" xml:space="preserve">
<path d="M206,413c74.6,0,135-60.4,135-135s-60.4-137-135-137S71,203.4,71,278S131.4,413,206,413z M206,293c-24.8,0-45-20.2-45-45
	c0-19.5,12.6-36,30-42.2V173h30v32.8c17.4,6.2,30,22.7,30,42.2h-30c0-8.3-6.7-15-15-15s-15,6.7-15,15s6.7,15,15,15
	c24.8,0,45,20.2,45,45c0,19.5-12.6,36-30,42.2V383h-30v-32.8c-17.4-6.2-30-22.7-30-42.2h30c0,8.3,6.7,15,15,15s15-6.7,15-15
	S214.3,293,206,293z"/>
<path d="M-49,556.8L47.2,653l60-60h120.1c39,0,74.8-21.6,93-56.2L401,383h-13.4c-33.5,0-64.2,18.6-79.7,48.2l-40.7,77.7
	c-7.8,14.8-23.1,24.1-39.9,24.1H131v-30h96.3c5.6,0,10.7-3.1,13.3-8l27.2-52h-172c-19.9,0-39,7.9-53,22L-49,556.8z"/>
</svg>
