<?xml version="1.0" encoding="iso-8859-1"?>
<!-- Generator: Adobe Illustrator 19.0.0, SVG Export Plug-In . SVG Version: 6.00 Build 0)  -->
<svg version="1.1" id="Capa_1" xmlns="http://www.w3.org/2000/svg" xmlns:xlink="http://www.w3.org/1999/xlink" x="0px" y="0px"
	 viewBox="0 0 512.002 512.002" style="enable-background:new 0 0 512.002 512.002;" xml:space="preserve">
<path style="fill:#2DADE3;" d="M457.001,387.5l15,60c16.569,0,30-13.432,30-30v-5L457.001,387.5z"/>
<path style="fill:#49C9FF;" d="M442.001,412.5v5c0,16.568,13.431,30,30,30v-60L442.001,412.5z"/>
<path style="fill:#869E47;" d="M472.001,352.5h10c11.046,0,20,8.954,20,20v40h-30l-15-35L472.001,352.5z"/>
<path style="fill:#9DB55F;" d="M472.001,352.5h-10c-11.046,0-20,8.954-20,20v40h30V352.5z"/>
<path style="fill:#60312C;" d="M472.001,262.5l-15,30l15,30c16.569,0,30-13.431,30-30S488.57,262.5,472.001,262.5z"/>
<path style="fill:#85453D;" d="M442.001,292.5c0,16.569,13.431,30,30,30v-60C455.432,262.5,442.001,275.931,442.001,292.5z"/>
<path style="fill:#1990C2;" d="M337.001,262.5v75c24.853,0,45-20.147,45-45L337.001,262.5z"/>
<path style="fill:#2DADE3;" d="M352.001,292.5l-15-30l-45,30c0,24.853,20.147,45,45,45C345.285,337.5,352.001,317.353,352.001,292.5
	z"/>
<path style="fill:#FF6337;" d="M362.001,172.5h-30l20,120h30v-100C382.001,181.454,373.047,172.5,362.001,172.5z"/>
<path style="fill:#FF8646;" d="M332.001,172.5h-20c-11.046,0-20,8.954-20,20v100h60v-100
	C352.001,181.454,343.047,172.5,332.001,172.5z"/>
<path style="fill:#60312C;" d="M337.001,52.5v90c24.853,0,45-20.147,45-45S361.854,52.5,337.001,52.5z"/>
<path style="fill:#85453D;" d="M352.001,97.5c0-24.853-6.716-45-15-45c-24.853,0-45,20.147-45,45s20.147,45,45,45
	C345.285,142.5,352.001,122.353,352.001,97.5z"/>
<polygon style="fill:#E18F4E;" points="10.001,7.5 70.001,150 187.001,150 247.001,7.5 "/>
<polygon style="fill:#C27749;" points="187.001,150 70.001,150 10.001,292.5 247.001,292.5 "/>
<polygon style="fill:#FFA754;" points="100.001,97.5 10.001,7.5 10.001,292.5 100.001,202.5 "/>
<polygon style="fill:#A45E43;" points="157.001,97.5 157.001,202.5 247.001,292.5 247.001,7.5 "/>
<rect x="40" y="37.5" style="fill:#FFF0D3;" width="177" height="225"/>
<polygon style="fill:#869E47;" points="147.001,77.5 117.001,150 147.001,222.5 177.001,222.5 177.001,77.5 "/>
<rect x="80" y="77.5" style="fill:#9DB55F;" width="67" height="145"/>
<path d="M472.001,330c20.678,0,37.5-16.822,37.5-37.5s-16.822-37.5-37.5-37.5s-37.5,16.822-37.5,37.5S451.323,330,472.001,330z
	 M472.001,270c12.407,0,22.5,10.093,22.5,22.5s-10.093,22.5-22.5,22.5s-22.5-10.093-22.5-22.5S459.594,270,472.001,270z"/>
<path d="M482.001,345h-20c-12.244,0-22.641,8.046-26.192,19.127c-9.404-2.697-16.308-11.368-16.308-21.627v-120
	c0-18.417-13.349-33.765-30.878-36.903C385.553,173.764,374.781,165,362.001,165h-50c-15.164,0-27.5,12.336-27.5,27.5v100
	c0,14.269,5.73,27.22,15,36.692v159.902l-24.872,8.291c-3.93,1.31-6.053,5.557-4.744,9.487c1.048,3.143,3.974,5.13,7.114,5.13
	c0.786,0,1.586-0.125,2.373-0.387l30-10c3.062-1.021,5.128-3.887,5.128-7.115V339.924c6.824,3.251,14.452,5.076,22.5,5.076
	s15.676-1.825,22.5-5.076v149.17l-24.872,8.291c-3.93,1.31-6.053,5.557-4.744,9.487c1.048,3.143,3.974,5.13,7.114,5.13
	c0.786,0,1.586-0.125,2.373-0.387l30-10c3.062-1.021,5.128-3.887,5.128-7.115V329.192c9.27-9.472,15-22.423,15-36.692v-91.21
	c8.729,3.096,15,11.432,15,21.21v120c0,18.11,12.904,33.261,30,36.745V504.5c0,4.142,3.358,7.5,7.5,7.5s7.5-3.358,7.5-7.5v-57.02
	c6.272,4.719,14.064,7.52,22.5,7.52s16.228-2.801,22.5-7.52v57.02c0,4.142,3.358,7.5,7.5,7.5s7.5-3.358,7.5-7.5v-132
	C509.501,357.336,497.165,345,482.001,345z M312.001,180h50c6.893,0,12.5,5.607,12.5,12.5V285h-75v-92.5
	C299.501,185.607,305.108,180,312.001,180z M300.256,300h73.491c-3.484,17.096-18.635,30-36.745,30S303.74,317.096,300.256,300z
	 M462.001,360h20c6.893,0,12.5,5.607,12.5,12.5V405h-45v-32.5C449.501,365.607,455.108,360,462.001,360z M472.001,440
	c-11.561,0-21.11-8.766-22.358-20h44.716C493.111,431.234,483.562,440,472.001,440z"/>
<path d="M337.001,150c28.949,0,52.5-23.551,52.5-52.5S365.95,45,337.001,45s-52.5,23.551-52.5,52.5S308.052,150,337.001,150z
	 M337.001,60c20.678,0,37.5,16.822,37.5,37.5s-16.822,37.5-37.5,37.5s-37.5-16.822-37.5-37.5S316.323,60,337.001,60z"/>
<path d="M247.001,315h-30c-4.142,0-7.5,3.358-7.5,7.5s3.358,7.5,7.5,7.5h30c4.142,0,7.5-3.358,7.5-7.5S251.143,315,247.001,315z"/>
<path d="M247.001,0h-237c-4.142,0-7.5,3.358-7.5,7.5v285c0,4.142,3.358,7.5,7.5,7.5h237c4.142,0,7.5-3.358,7.5-7.5V7.5
	C254.501,3.358,251.143,0,247.001,0z M17.501,25.606l15,15v218.787l-15,15V25.606z M47.501,255V45h162v210H47.501z M213.895,30
	H43.107l-15-15h200.787L213.895,30z M43.107,270h170.787l15,15H28.107L43.107,270z M224.501,259.394V40.606l15-15v248.787
	L224.501,259.394z"/>
<path d="M177.001,70h-97c-4.142,0-7.5,3.358-7.5,7.5v145c0,4.142,3.358,7.5,7.5,7.5h97c4.142,0,7.5-3.358,7.5-7.5v-15
	c0-4.142-3.358-7.5-7.5-7.5s-7.5,3.358-7.5,7.5v7.5h-82V85h82v92.5c0,4.142,3.358,7.5,7.5,7.5s7.5-3.358,7.5-7.5v-100
	C184.501,73.358,181.143,70,177.001,70z"/>
<g>
</g>
<g>
</g>
<g>
</g>
<g>
</g>
<g>
</g>
<g>
</g>
<g>
</g>
<g>
</g>
<g>
</g>
<g>
</g>
<g>
</g>
<g>
</g>
<g>
</g>
<g>
</g>
<g>
</g>
</svg>
